<?xml version="1.0" encoding="UTF-8"?><svg id="Contours" xmlns="http://www.w3.org/2000/svg" viewBox="0 0 1215.069 1231.057"><path d="M1188.4238,681.6583c2.309,3.933-1.1631,5.7543-2.4622,8.2817-.5337,1.0385-1.3685,1.9221-2.0665,2.8761,1.2481.2767,2.4924.5727,3.7456.823.8273.1653,1.6677.2649,2.5021.3939-.55.5814-1.0522,1.2215-1.6681,1.7218-.3621.2943-1.3223.4523-1.3071.5262,1.9727,9.581-7.6367,10.0145-11.6665,14.8274-.6885.8222-1.2988,1.7098-1.945,2.5673,1.3813.8939,2.6629,2.0385,4.1624,2.6352,4.8009,1.9107,9.9575,3.1178,14.4385,5.5773,3.0875,1.6947,5.6238,4.7586,7.8063,7.6618,4.7508,6.3195,9.5652,12.687,11.242,20.7092-4.0315,2.4827,1.5827,8.5923-4.418,10.994-2.0223.8094-2.34,5.5231-3.7563,8.2888-1.8702,3.652-4.0284,7.1592-6.17,10.6633-.1294.212-1.2295-.3181-1.8298-.2171-1.8062.3039-4.5933.1626-5.2191,1.2339-4.35,7.4472-11.9457,7.4492-18.95,9.2794-4.2222,1.1034-7.9234,4.4295-12.149,5.2362-6.0379,1.1528-12.4874.2206-18.4866,1.4835-4.9741,1.0471-9.6764,3.7424-14.2624,6.157-3.3404,1.7589-6.5009,4.0208-9.3109,6.5392-.9809.879-1.1233,3.2752-.8455,4.8355.3819,2.1441,1.7286,3.5593-1.7126,4.9733-1.6565.6806-2.0636,4.9471-2.6077,7.6752-1.0978,5.5035-1.2089,11.3017-2.9948,16.5465-2.5193,7.399-5.1177,14.6642-5.6045,22.547-.4664,7.5556-3.7463,13.9878-7.9206,20.1852-1.3234,1.9646-1.872,5.0592-1.499,7.4362.874,5.5688-1.8441,10.4184-5.0694,13.2249-3.9404,3.4282-3.6137,8.4175-6.8103,11.6802-1.5747,1.6071-3.3367,3.0688-4.6738,4.8513-.5066.6752-.0572,2.0677-.0436,3.1332,4.7577-.5529,1.4126,2.9102,1.3381,3.6464-.5405,5.3418-1.3701,10.5873-5.6588,14.7241-1.3896,1.3405-1.2686,4.2547-1.8171,6.4544-.1485.5958-.0362,1.3352-.3517,1.7993-7.556,11.1179-11.5563,24.6874-23.7965,32.6011-5.8709,3.7956-10.5379,9.4069-16.1799,13.6203-3.4836,2.6016-5.9452,5.3742-8.501,9.0382-4.6618,6.6827-11.8549,11.6144-18.0607,17.2004-4.0687,3.6624-8.1707,7.2983-12.4138,10.7545-6.6112,5.3851-13.3492,10.6149-20.047,15.893-1.4617,1.1519-3.0294,2.1756-4.4246,3.3992-.2293.2011.0018,1.4809.3368,1.656.6939.3626,1.6008.3176,2.4201.4403-.77.5385-1.4698,1.2656-2.3221,1.5837-4.3092,1.6079-8.6841,3.0424-12.9725,4.7018-.9096.352-1.5288,1.4185-2.3249,2.1059-5.0758,4.3829-9.5429,10.4116-15.4378,12.6157-4.9862,1.8645-7.6168,7.9806-14.3297,6.9085-2.3333-.3725-5.1942,3.847-8.0962,5.4625-5.0698,2.8224-9.4073,7.4228-15.9437,6.9967-.6782-.0441-1.7526.3403-2.0429.8607-3.0901,5.5384-8.7204,6.276-14.0436,7.6195-2.0348.5135-3.1167,2.4072-4.4021,3.3723-3.5237,2.6453-8.2476,4.0241-12.6949,5.0005-3.4465.7566-8.5644-1.3307-10.509.4703-3.6496,3.3802-7.1496.6329-10.5885,1.5825-4.631,1.2789-9.7686.5844-14.5791,1.391-5.2161.8744-10.3007,2.5228-15.4533,3.7905-3.5518.8738-7.2584,2.726-10.6547,2.2848-6.7695-.879-11.5824,2.7571-17.2116,5.0371-5.3827,2.1802-11.4944,2.5768-17.2978,3.6942-2.3214.4471-4.6726.993-7.015,1.0165-3.3159.0333-6.5656,3.6688-10.0301.1384-.5227-.5327-2.4639-.5321-3.0575-.003-5.617,5.0088-11.0844.0242-16.5945.0282-7.3953.0052-14.6863-.0937-21.8976-2.09-1.1882-.3288-2.8899,1.1973-4.3544,1.8663-1.5952-5.9379-6.5937-2.1138-9.8548-3.1702-4.5612-1.4773-9.6296-1.3454-14.4502-2.0986-1.0595-.1657-1.9419-1.2625-2.9921-1.742-1.1566-.5281-3.1353-1.5334-3.515-1.1383-4.491,4.6737-8.185.1215-12.2405-.6722-1.9217-.3762-4.6439-.2713-6.0181.837-4.2689,3.4428-8.9662.9966-13.3846,1.6545-.566.0842-1.8374-.9064-1.8046-.9839,3.8333-9.026-5.606-3.2936-7.0562-6.3672-2.9775,1.4458-5.9004,2.8222-8.9884.0406-.332-.299-1.7707.9473-2.677.9166-5.2704-.1787-10.5427-.4419-15.7925-.9181-.6649-.0604-1.2422-1.5077-1.7844-2.3606-.3954-.6218-.6663-1.3226-.9927-1.9882-.384.608-.8831,1.1724-1.1327,1.8312-1.2966,3.4223-3.462,3.4688-5.221.7892-1.5543-2.3681-3.4524-2.3239-5.7999-2.7513-5.0269-.9152-9.9346-2.5097-14.8653-3.9164-2.3693-.6761-4.6796-2.2231-7.0173-2.2245-7.8109-.0046-13.6885-4.7485-20.3773-7.5186-2.629-1.0887-5.5513-1.4616-8.3282-2.2048-.9496-.254-2.5545-.4694-2.6863-.9964-1.3263-5.3003-6.1521-3.8584-9.5409-5.0399-.9076-.3165-2.1494.4945-3.2335.4793-2.072-.0289-5.3425.4908-6.0178-.5624-4.7486-7.405-12.5502-9.2152-19.889-12.3317-7.4063-3.1451-14.1851-7.7333-21.4196-11.3252-10.5924-5.2592-21.4722-9.9503-31.9666-15.3909-4.0228-2.0855-7.156-5.822-11.0066-8.3265-2.8232-1.8361-7.0245-2.1166-9.0936-4.4414-5.7354-6.4449-15.2737-5.7315-20.7739-11.3047-5.189-5.2577-12.8529-5.7401-17.8042-11.42-1.767-2.027-6.8743-1.7269-10.0019-4.128-4.3854-3.3667-9.0805-6.3294-13.6288-9.4854-.4307-.2989-.7056-.9839-1.1454-1.0845-10.9966-2.5137-18.4104-11.2972-28.0563-15.9326-5.112-2.4565-8.5506-6.4774-13.0927-9.2796-2.8307-1.7464-5.8575-3.2578-8.4129-5.3441-2.5395-2.0733-4.421-4.9421-6.9162-7.0831-2.8399-2.4368-6.0261-4.4732-9.087-6.6482-2.8603-2.0325-6.6479-3.4372-4.8238-8.3028.1993-.5315-.986-1.6739-1.6521-2.4236-5.9648-6.7121-12.1283-13.2573-17.8673-20.1561-2.7451-3.2998-4.6344-7.3004-7.0294-10.9052-3.9188-5.8982-11.2984-8.7212-17.6126-5.7656-3.1399,1.4697-6.7639,4.5616-7.6481,7.643-1.8622,6.4897-7.6284,7.7442-11.6844,11.3382-3.6313,3.2177-6.6798,2.1154-9.8866.3004-1.3637-.7717-2.1071-2.5838-3.2487-3.8152-2.4928-2.6888-4.9-5.4932-7.6582-7.8863-1.6145-1.4008-2.5029-5.3236-6.0071-2.5824-.7141-2.3629-2.7583-5.5572-1.8968-6.9351,2.7563-4.4089,3.3415-8.5531,2.2363-13.5502-.4749-2.1468,1.3704-4.7023,1.5551-7.1185.6744-8.8214-4.0183-17.9906-15.2591-18.1499-1.2184-.0173-2.4497.8775-3.675,1.3492.4842.9615,1.3474,1.9219,1.3503,2.8848.0032,1.0518-.5379,2.6687-1.3024,3.0112-.8793.3939-2.4008-.0982-3.3832-.6603-.7499-.4289-1.0945-1.5664-1.6194-2.3886-.3256,1.103-.481,2.2976-1.0139,3.2893-.9706,1.8065-2.165,3.4928-3.266,5.2293-.5348-1.3727-1.0551-2.7515-1.6137-4.1144-.1578-.3851-.4279-.7242-.6465-1.0844-.1366.4762-.2822.95-.4083,1.4289-.6661,2.5308-1.6078,3.809-4.1165,1.3997-.6267-.602-2.1053-.3169-3.1924-.4395-.0505,1.0446-.1011,2.0892-.1516,3.1338.8069-.025,1.63-.1586,2.4156-.0409.639.0958,1.7859.616,1.759.7367-.211.9478-.4118,2.3303-1.0704,2.6542-1.2913.6351-3.012,1.1648-4.3011.8116-1.1905-.3262-1.9071-2.1218-3.1025-2.78-.812-.4471-2.09-.048-3.1596-.0273.3063.8632.5627,1.7487.9326,2.5837.3861.8717.8816,1.6949,1.3292,2.5393-1.4853.0225-4.1287.45-4.2835.0073-2.5984-7.431-6.4914-.6327-9.6519-.9064-.7533-.0652-1.729.898-2.3717,1.5996-.4824.5267-.5953,1.3921-.8728,2.1066.6714-.0042,1.3427-.0085,2.0141-.0123.1776-.001.3584.0218.5323-.0034,1.5801-.2299,3.159-.4681,4.7382-.7038-1.6533,1.3013-3.1982,3.4337-4.9909,3.6676-1.7564.2292-5.7314,2.5368-5.5741-2.5113-2.0701-.0053-4.7789-.8513-6.089.1439-3.7333,2.8365-6.6822,4.055-11.6623,1.9038-2.9992-1.2955-7.5567,1.0315-11.4178,1.7088-1.5623.2741-4.1534,1.1931-4.5458.6244-4.1669-6.0381-10.7708-3.3003-16.1239-4.8634-2.1958-.6412-4.6428-1.2123-6.3406-2.595-2.9784-2.4256-5.5133-4.5951-9.8037-2.8071-2.5596,1.0667-11.6163-4.3667-12.8078-7.0004-.4081-.9018-.8841-1.98-1.6528-2.476-3.4581-2.2318-7.2638-3.9878-10.4816-6.5063-2.0495-1.6042-3.5511-4.0995-4.8359-6.4482-2.3642-4.3219-4.1078-9.0051-6.7083-13.1637-.8815-1.4096-4.986-1.4249-5.1929-2.5311-1.0695-5.7165-7.4721-6.8062-9.3598-11.9874-1.7835-4.8952-6.0579-8.8725-7.9051-13.7571-2.8506-7.538-8.9855-13.6093-9.3984-22.2724-.1503-3.154-2.1487-6.1859-2.9536-9.3623-.2572-1.0149.6138-2.3156.9685-3.4855,1.066.8444,2.2151,1.6056,3.171,2.5602.7325.7316,1.221,1.7076,1.818,2.5749-.15-1.087-.0805-2.2647-.4857-3.2464-2.5665-6.2179-5.0723-12.4704-7.9383-18.5513-1.6694-3.5421-.857-6.3703,1.7217-8.6959,2.7624-2.4913,6.0578-4.3952,8.7914-6.9128,1.2456-1.1471,1.7606-3.1265,2.4918-4.7793.4869-1.1005.7704-2.2909,1.145-3.4411,1.155.6416,2.8278.9902,3.3826,1.9712,4.3026,7.6073,8.6324,15.2171,12.4889,23.0548,6.6849,13.5858,14.6525,25.9654,29.0998,32.4346,3.7661,1.6864,8.1452,3.4599,10.9581-2.0065.3011-.5851,1.3852-.9187,2.1648-1.0742,1.5504-.3093,3.1418-.4132,4.7164-.6019-1.138-1.4821-2.1742-3.0605-3.4519-4.4104-.778-.8219-1.9282-1.2915-2.9113-1.9194.4348-.1876.9139-.5985,1.2965-.5227,1.3515.2679,2.7131.595,3.9877,1.1067,1.0596.4255,2.0022,1.1424,2.9966,1.7303-.4855-.983-.926-1.9915-1.464-2.945-3.2499-5.7594-6.5135-11.5113-9.7951-17.2528-.57-.9972-1.2475-1.933-1.8754-2.8971-.0852,1.3167-.6595,2.8683-.1616,3.9049,1.3592,2.8292,3.2785,5.3846,4.7412,8.1715.4731.9014.2183,2.1847.2964,3.2933-1.0831-.3736-2.6369-.4127-3.1769-1.1725-5.6578-7.9594-9.7867-16.7425-13.1995-25.8497-.6975-1.861-1.3576-4.4815-.584-6.0245,4.2626-8.5018,9.0153-17.3424,18.6016-20.2321,3.4119-1.0285,8.584,2.6205,12.5372,4.8656,4.2297,2.4021,8.2403,5.3699,11.8368,8.6497,2.8208,2.5724,4.0929,1.0117,5.9408-.8467,1.0404-1.0463,2.4802-1.7091,3.7787-2.4796.719-.4267,6.9076,4.3535,1.7151-1.9193-.8767-1.0591,1.2654-3.3873,3.671-1.3512.5036.4262,1.6596.0815,2.515.0921-3.1555-4.1232,3.9739-5.9916,2.2247-9.9056-.1397-.3125.97-1.3156,1.6287-1.8328,10.6843-8.3892,14.3702-19.6443,14.0305-32.8379-.1565-6.0772-3.7752-8.4581-8.1933-11.731-7.6961-5.7014-15.9376-10.095-24.21-14.7207-3.6896-2.0631-5.2015-7.9086-7.9045-11.9001-1.1777-1.7391-.7223-6.3605-5.221-3.5315-.1803.1133-1.8355-1.3617-2.1249-2.3049-1.5935-5.1934-1.161-10.8484-5.1393-15.5686-1.3851-1.6434.1592-5.7687.4018-8.7576.0392-.4826.2679-.9498.409-1.4241-4.6642.5093-3.4633-2.1646-3.3933-5.1648.0703-3.012-1.9112-6.0256-2.1489-9.1037-.2502-3.2392.6408-6.5497.7825-9.8398.2622-6.0907.1602-12.2011.5542-18.2809.3227-4.98,1.0532-9.9409,1.7679-14.8864,1.0952-7.5783,2.3343-15.1356,3.5018-22.7035.0534-.3459-.1506-.8401.0238-1.0429,5.762-6.6977,2.3581-15.4551,5.1829-22.8985,2.4528-6.4631,3.9678-13.297,5.6722-20.0241,1.1886-4.6915,2.0039-9.478,2.9648-14.2263.1025-.5064-.1391-1.1895.1187-1.5418,5.6054-7.6609,5.4929-7.6774,7.4566-17.9805.3786-1.9867,1.8957-3.9121,3.2847-5.5235,5.7109-6.6256,11.1228-13.3027,14.44-21.6528,1.211-3.0483,5.1287-4.9756,7.6763-7.5483,4.8425-4.89,9.5559-9.9079,14.401-14.7953.9212-.9293,2.1954-1.5132,3.3202-2.2354,5.8669-3.7668,11.6572-7.6627,17.6449-11.2269,2.6532-1.5793,5.6368-2.7121,8.5985-3.6384,4.238-1.3256,5.3073-3.9408,5.0857-8.2273-.2246-4.3444.2495-8.8468,1.2185-13.0975,1.0078-4.4211,4.2591-7.8329,3.4912-13.3285-.5738-4.1064,2.8729-8.6802,4.084-13.1661.7214-2.6718.6322-5.573.81-8.3772.1048-1.6526-.1935-3.3506.061-4.9698.6331-4.028,1.2021-8.1015,2.3158-12.0088,1.1659-4.0903,2.5794-8.1946,4.5387-11.9517,2.2275-4.2713,5.3192-8.0832,7.7547-12.2585,1.1394-1.9533,1.6309-4.2872,2.3887-6.4581.1637-.469.0368-1.2254.3349-1.4347,8.3118-5.8362,11.7853-15.1331,16.9759-23.2439,2.544-3.9753,6.5377-6.9964,9.3851-10.8149,1.5091-2.0238,1.2654-5.5002,5.1881-5.0588.3301.0371.9338-.6318,1.0963-1.0853,2.9735-8.2964,6.613-13.2883,13.4855-18.863,1.1184-.9073,1.7595-2.4276,2.5495-3.7089.9401-1.5247,1.4398-3.5783,2.757-4.5719,9.5007-7.166,16.8491-16.2324,23.6514-25.8475,1.1957-1.6902,2.6772-3.5324,4.4649-4.3794,4.3753-2.0731,5.4646-6.3401,7.7688-9.8876,1.6824-2.5902,4.3399-4.5365,6.4983-6.8304,4.0172-4.2695,7.7348-8.8598,12.0498-12.7989,4.1187-3.7599,8.9047-6.7788,13.273-10.2786,3.0855-2.4721,5.8224-5.3909,8.9769-7.7617,2.727-2.0494,5.8437-3.5752,8.7385-5.4107.5636-.3574.8349-1.1456,1.3513-1.6132,1.782-1.6132,3.5688-3.2267,5.4338-4.7414,4.1962-3.408,8.5571-6.623,12.628-10.1723,3.2344-2.8199,5.9241-6.2933,10.9329-5.9002,1.201.0943,3.1419-.4186,3.6127-1.274,3.0293-5.5035,8.6748-6.8676,13.6847-9.3725,3.2373-1.6186,6.0278-4.1206,9.2408-5.8021,1.9637-1.0277,4.3823-1.1498,6.5333-1.8681,1.6444-.5492,3.9886-.9697,4.6368-2.1856,2.4332-4.5641,5.1519-7.2548,10.4722-4.1038.183.1084,1.4701-.9563,1.3916-1.1992-1.5462-4.7844,2.8006-3.9057,4.8627-4.9754,7.7382-4.0141,15.5118-7.9687,23.3766-11.727,5.7714-2.7579,11.7666-5.0458,17.5538-7.773,8.6234-4.0637,17.1164-8.4038,25.735-12.478,4.1491-1.9614,8.5738-3.3604,12.6425-5.4619,1.8098-.9348,2.9876-3.0417,4.562-4.4978,1.6857-1.559,2.1134-4.8844,5.6416-3.9754.8723.2248,1.9067-.1794,2.8666-.2945-.7298.8254-1.6264,1.5577-2.151,2.4976-.8342,1.4946-1.4203,3.1277-2.1112,4.7023,1.5618.2014,3.2409.8758,4.6653.5228,6.3505-1.5739,6.5238-2.2146,3.5101-8.3372-.2127-.4321.3199-1.7773.5026-1.7766,3.2185.0115,6.7477-.6407,9.5911.4553,6.2654,2.4152,12.2067,5.6843,18.2245,8.7157,1.0501.529,1.8272,1.5999,2.7304,2.4204-1.0068.245-2.0169.4776-3.0197.738-1.3308.3455-4.845-1.2482-2.2946,2.6629.2771.4248-.902,2.0164-1.6474,2.8509-2.4741,2.7702-2.4655,4.2314,1.7862,4.096,4.462-.142,3.0103,3.311,3.2295,5.6592.2419,2.5919-.5692,2.7499-3.4166,3.2676-3.6094.6562-4.6281-1.429-6.8526-2.5405-3.6472-1.8222-7.6522-2.9518-11.549-4.2447-4.5334-1.5042-9.118-2.8537-13.6643-4.3203-.455-.1468-.8634-.9794-1.1833-.9182-2.7049.5179-5.3842,1.1696-8.0711,1.7811,2.7193,2.3027-1.6138,7.2257,3.3297,8.8788.6966.2329,1.5078,2.587,1.1032,3.2573-3.0912,5.1199-6.3686,10.1394-9.8696,14.9869-.5326.7374-2.586.7724-3.8164.5285-2.6898-.533-4.7461-5.6209-8.1345-1.0252-.0388.0526-.4909-.162-.7247-.296-5.9412-3.4056-10.6544.3113-14.8153,3.3677-4.659,3.4224-9.7523,5.557-14.8773,7.9236-3.747,1.7303-6.9686,4.5655-10.6219,6.5435-2.429,1.3152-5.2121,1.9716-7.825,2.954-1.3717.5157-3.5073.7476-3.9366,1.7131-1.6753,3.767-4.2923,5.2091-8.247,4.7021-.443-.0568-1.0668.1398-1.3868.4475-9.8143,9.44-22.9245,13.1469-34.2918,19.8701-3.0893,1.8271-5.1852,5.2995-8.2299,7.2456-3.4227,2.1876-7.9143,2.8619-11.0236,5.3438-4.918,3.9256-9.0045,8.8785-13.5682,13.2664-4.8982,4.7095-9.9323,9.278-14.9237,13.8901-4.3174,3.9892-8.1065,8.9904-13.1301,11.6622-6.0835,3.2356-8.3644,8.6123-11.5498,13.7827-2.1255,3.45-4.5917,6.7811-7.3814,9.7124-6.5461,6.8782-13.0234,13.895-20.1926,20.0868-7.3895,6.3819-12.1878,14.4017-17.2081,22.4863-4.1686,6.7131-9.3095,12.8142-13.7245,19.3848-5.2029,7.7433-9.8885,15.8379-15.1869,23.5119-3.0804,4.4616-7.5403,8.0332-10.2675,12.6606-3.4802,5.9052-6.6422,12.2435-8.5053,18.803-3.45,12.1467-5.688,24.6324-8.7862,36.887-1.1586,4.583-4.1378,8.8023-4.7626,13.3949-.5642,4.147.5967,8.668,1.6701,12.8514.7599,2.9614,2.5636,5.677,4.0403,8.4278,2.7699,5.1595,11.706,5.8423,15.202,1.1803.478-.6375,1.1575-1.876.913-2.1905-3.7623-4.8397-.0287-6.3578,3.3029-8.5775,1.7068-1.1372,5.3115-2.8541,1.4947-6.0161-.1859-.154,1.5243-2.9423,2.6417-4.2573,3.0012-3.5321,5.9384-7.1683,9.3187-10.3144,3.346-3.1141,7.0927-5.848,10.9256-8.3469.7786-.5076,3.4189.353,4.0063,1.3135,1.8876,3.0868,4.2128,3.5572,6.8905,1.6964,4.617-3.2084,7.8912,1.1523,11.688,2.0299,2.0098.4645,3.3399,3.4162,5.2827,4.8226.9165.6635,2.5557.4478,3.8623.4167,1.0912-.026,2.3138-.7735,3.2285-.4638,1.2642.428,2.2939,1.5485,3.4241,2.3724.0245-1.2939-.4064-2.9065.2095-3.7865.5476-.7825,2.2524-.9669,3.4527-.9841.5318-.0076,1.37.9724,1.5427,1.6402.1998.7726-.6101,2.0289-.243,2.5023,5.0192,6.471,5.2664,14.0519,5.9837,21.7714.4594,4.9437,3.1277,9.6586,4.5815,14.5428.7771,2.6108.8203,5.4469,1.658,8.0312,1.1609,3.5812,2.8029,7.0036,4.1574,10.5254,2.1802,5.6687,4.0318,11.4842,6.5736,16.9829.9267,2.0046,3.3492,3.387,5.2615,4.8242.5685.4274,1.7651-.0931,2.5992.117,1.6203.4082,3.1878,1.0263,4.7772,1.5575-.6204-2.0486-1.2885-4.0841-1.8526-6.1481-1.8746-6.8586-4.033-13.6525-1.1205-20.8532.6686-1.6529.7729-4.1677-.0287-5.6596-2.173-4.0444.0832-9.0387-3.1667-12.9206-.5024-.6001,1.6289-3.7501,2.9161-5.4353,3.1763-4.1586,3.3112-9.3801,1.8971-13.3828-2.282-6.4593-3.3997-14.0962-10.5423-17.9516-.9019-.4868-2.0912-2.3179-1.8251-2.8073,3.4096-6.271-2.1574-10.2989-3.62-15.3133-.4302-1.4749-.9306-2.9293-1.3989-4.3931,3.3025-.7443,2.2731-7.2064,7.5025-5.6366.7462.224,2.079-.8636,2.8886-1.6154,2.2963-2.132,4.2847-5.9587,6.7232-6.237,3.208-.3662,8.6198,1.0904,9.7472,3.3953,2.8979,5.9247,3.739,12.8587,10.4378,16.3912.4877.2572.6457,1.5511.6021,2.3435-.6905,12.5278,7.6762,19.9843,14.9941,28.4317,4.4947,5.1884,10.214,4.78,15.5485,6.4974.7913.2547,2.2813.1687,2.3674.5116,1.3995,5.5767,6.8035,1.0729,9.2731,3.7641,2.9986-2.7935,6.5231-5.2209,8.8114-8.5088,1.5316-2.2005,2.7967-5.7977-.9652-8.1116-2.9145-1.7927-3.4602-4.5714-3.1829-7.7644.0619-.712-.7619-1.501-1.1779-2.2545.0608.7281.2879,1.4903.1466,2.1768-.2645,1.2851-.7425,2.5263-1.1317,3.7858-1.0046-.7174-2.4619-1.2208-2.9225-2.1953-1.0635-2.2505-4.284-4.8066.2419-7.0779.4407-.2212.4444-2.2074.0238-3.0678-.9216-1.8854-2.2458-3.5739-3.4055-5.3429-.1609.8034-.3633,1.6013-.4719,2.4118-.1281.9554-.175,1.9216-.257,2.8831-.899-.6407-2.4456-1.165-2.5851-1.942-.6141-3.419-.7804-6.916-1.192-10.3748-.2755-2.3159.5068-4.2605-2.9114-6.1879-3.2498-1.8325-5.0161-7.0049-6.3863-11.0628-.4565-1.3519,2.292-3.8253,3.6523-5.7311.5088-.7128,1.2021-1.3089,1.8701-1.8907,3.6836-3.208,6.7883-6.5655,11.9454-8.5073,3.8012-1.4313,6.8006-1.3245,10.2431-1.1151,2.2605.1375,3.8421.7477,4.2338,3.8131.2207,1.7272,2.8415,3.4004,4.7003,4.606,2.7532,1.7858,6.2701,2.6121,8.6152,4.7679,6.8289,6.2774,15.1434,9.7981,23.6452,12.4143,3.7041,1.1398,8.3236,2.7615,12.8225-.2697,2.7748-1.8695,7.1858-1.3174,9.9489-3.196,2.9425-2.0006,5.6775-5.2517,6.9454-8.5547,2.0437-5.3241,6.7382-8.0247,10.1052-11.9751.354-.4153,3.4526,1.4744,5.2564,2.3395,1.6062.7703,3.1379,2.1757,4.7802,2.3036,5.6441.4398,8.084,4.052,5.6173,8.9889-2.4281,4.8596-4.0134,10.5822-7.6279,14.3222-9.913,10.257-20.0954,19.9528-35.7703,21.8847-9.8193,1.2102-17.2895-3.1164-25.6191-5.9026-1.0961-.3667-2.4093-.0845-3.622-.1029.0644,1.1531.0199,2.3257.2218,3.4541.2318,1.2956,1.1652,2.6382.9567,3.8116-1.1579,6.5145,2.1789,9.6713,7.6255,12.3977,5.6264,2.8165,12.0152,5.0893,14.7251,11.8497.3709.9254,2.2627,1.1992,3.3933,1.8708,2.2614,1.3434,4.3289,3.4329,6.7559,3.9849,4.1689.948,7.2236,5.5903,12.3211,3.5701.9732-.3858,2.9839.2156,3.681,1.055,2.6025,3.1336,5.4081,2.213,8.3603.9633.7557-.3199,1.6453-1.1791,2.2006-.9898,9.6912,3.3024,15.1197-4.6912,22.2059-8.257,1.025-.5158,2.4263-1.6184,3.0948-1.295,4.9311,2.3861,5.3264-2.9761,7.8864-4.5235.4744-.2867.4956-1.9443.1807-2.7582-.3886-1.0043-1.3475-1.7879-2.0599-2.6669,2.0485-.9816,4.0883-1.9822,6.1498-2.9357.8621-.3987,2.4744-.5886,2.5471-1.0587.6179-3.9971.9551-8.0374,1.3854-12.0638.5272-4.9336.5567-9.9976,1.7895-14.7489.7116-2.7424-3.5473-3.2912-1.5087-6.3489,1.3658-2.0485,1.1763-5.1474,1.6157-7.7875.0767-.4605-.1796-.9763-.2821-1.4666-.2527.4556-.4705.9351-.7645,1.3622-.8589,1.2476-1.7484,2.4742-2.6259,3.709-.5023-.4813-1.5146-1.1264-1.4215-1.4165.4888-1.5224,1.251-2.958,1.9303-4.4181,1.0128-2.1768,2.3077-4.2667,2.9944-6.5411,1.2243-4.0546,1.2316-8.7175,3.2839-12.228,3.5949-6.1489,9.813-6.1897,15.7637-3.7838,3.6325,1.4686,6.9583,1.354,10.0229-.48,1.4841-.8881,2.072-3.1991,3.2434-4.73.3522-.4604,1.7202-.8355,1.9144-.6178,1.9008,2.1317,3.0353,1.8336,4.3541-.9722,2.0283-4.3156,4.0224-8.6746,6.4659-12.7548,1.0481-1.75,2.9749-3.3675,4.8714-4.1412,5.5999-2.2849,7.1298-.8734,12.1985,4.9638,6.2916,7.2456,1.0435,13.3805-1.0698,19.6346-1.5067,4.4588-4.5886,8.3883-6.9906,12.5407-1.9904,3.4407-3.5452,7.2839-6.1487,10.1793-2.9058,3.2316-6.4443,6.2689-10.3069,8.1779-5.822,2.8774-9.6449,6.3409-12.2471,12.8054-2.1632,5.3739-1.9431,9.4135.4691,13.8203,3.2125,5.869,12.4746,8.4161,18.6863,6.2564,8.0177-2.7876,9.4168-10.9634,14.1798-16.3618,2.7796-3.1505,4.5498-7.2249,6.5809-10.9879.9259-1.7155,1.2656-3.7386,2.0955-5.5175.5715-1.2251,1.3551-2.4628,2.348-3.3573,2.2619-2.0378,4.7358-3.8391,7.0516-5.8205.2777-.2376.3429-1.2885.1154-1.4689-5.4373-4.3109.8266-7.9811.6141-11.9792-.039-.7327-.174-1.4669-.1416-2.1949.0301-.6765.2247-1.3456.3468-2.018.8038.3657,1.6677.6422,2.3906,1.1282.493.3314.7891.9556,1.1733,1.4489.1502-.8575.6762-2.3078.3956-2.4857-6.9935-4.4341-.3093-8.6664.165-12.9438.0459-.4134,1.1-.978,1.0296-1.1034-2.6739-4.7582.9503-8.8169,1.1428-13.1269.0897-2.0058-.8418-3.3742,1.4734-4.4551.4956-.2314,1.1324-1.3585.9702-1.623-2.939-4.7932,1.7905-8.1661,2.1912-12.309.034-.3519.1444-.7982-.0159-1.0522-4.2342-6.7087.8256-13.3794.0724-20.0963-.6113-5.4512-.8888-10.9503-1.0502-16.4358-.0579-1.9687.043-4.4189,1.1229-5.8632,5.1259-6.8557.3025-13.8125.3288-20.6474.014-3.6321-2.8719-7.2327-4.1011-10.9621-.1675-.5082-4.0946-3.3032.731-3.1198.1109.0042.4464-.7436.3386-.8881-3.1297-4.1945-4.7666-9.5875-7.7121-13.3455-3.0426-3.8819-5.5397-8.0137-7.9554-12.161-1.9514-3.3502-4.1894-7.5284-3.7324-11.0014.4409-3.3504,3.8899-6.5411,6.5577-9.2748,1.6359-1.6764,4.235-2.4879,6.5066-3.436,1.0781-.45,2.5739-.7166,3.5567-.3009.697.2948.8054,1.893,1.257,2.8723,1.6342,3.5436,3.3023,7.0716,4.9576,10.6056.4246-.2182.9938-.3308,1.2454-.6753.6532-.8943.9941-2.1046,1.8061-2.7588.4265-.3436,1.5801.2151,2.4053.3663-.7008,1.1086-1.3664,2.2413-2.1087,3.3214-2.2933,3.3367.0104,4.9862,2.277,6.9212,2.9344,2.505,7.0568,4.3396,6.3208,9.3789-.044.3013.0678.855.2499.9263,6.5142,2.5517,5.7488,8.0864,6.4548,13.6071.4339,3.3935,3.5543,6.737,6.1327,9.478,2.463,2.6184.9398,8.0453,6.1708,8.5037-2.0686,3.1023-.1733,5.4398,1.1087,8.2523,3.183,6.9834,5.9089,14.1847,8.5884,21.384,1.321,3.5491,2.3378,7.2437,3.1315,10.9497,1.5899,7.4229,3.4241,14.8477,4.2054,22.3707.5348,5.149-.5612,10.4638-.8669,15.7081-.0366.6279.3117,1.2782.4816,1.9182.1852-.6183.2363-1.3327.592-1.8288.3871-.5401,1.057-.8776,1.6036-1.3034.4101.6279,1.2647,1.7226,1.1662,1.8163-4.0787,3.8839-.1361,8.17-.3885,12.2153-.3839,6.1524.8366,12.4789,1.9783,18.6194.5208,2.8014,2.4425,5.3547,3.7972,7.9853,1.5054,2.9231,5.0545,5.2749,2.4898,9.3034-.1143.1797.0672.7531.2808.9062,6.1065,4.3778,4.5425,11.3919,6.2647,17.3366,1.3956,4.8171,4.3694,9.179,6.6655,13.7315.4466.8855,1.448,1.7311,1.4252,2.5744-.1416,5.2458,3.1424,7.0796,7.4898,8.2516,1.2124.3268,2.2342,1.5189,3.2353,2.4326,1.3964,1.2745,2.5629,2.8308,4.0611,3.9561,1.9458,1.4616,6.2997.6442,4.834,5.3457-.0282.0903,2.7108,1.0542,4.1649,1.594,8.4657,3.1424,16.9322,6.283,25.4046,9.4073.3431.1265.8877.2604,1.1049.0912,2.8508-2.2206,5.9148-2.1537,9.4833-2.2686,7.1645-.2308,13.1793-4.1898,18.7673-8.7456,3.7055-3.021,8.3617-4.9035,11.9523-8.0306,4.0274-3.5074,7.3408-7.8364,10.9516-11.8201,3.2534-3.5894,6.5781-7.12,9.6911-10.828,1.3736-1.6361,3.0333-3.5443,3.307-5.5045,1.3188-9.4428,6.1978-18.5502,2.9658-28.4325-.219-.6698-1.2616-1.0409-1.8458-1.6261-1.8719-1.8753-3.6846-3.8101-5.5713-5.6701-.679-.6693-1.5292-1.6798-2.2532-1.6408-.6977.0375-1.6847,1.1161-1.9446,1.9292-5.2919,16.55-15.9098,28.7191-31.0742,36.7448-5.2158,2.7605-11.206,4.0937-16.8983,5.9031-2.9733.9452-6.9847-3.3922-7.5502-7.5163-.3103-2.263-1.3504-4.4172-1.8408-6.6686-.1904-.8743-.1033-2.4281.4184-2.7431,5.5197-3.3326,11.1076-6.5606,16.7725-9.6411,3.042-1.6542,7.8663-1.0624,7.687-6.493,6.5152-3.0096,6.5093-9.4301,7.4792-15.0782.7167-4.1735-.1889-8.6317.5736-12.7897,1.057-5.7644-.4045-10.6827-3.3607-15.3744-.8415-1.3354-2.3494-2.2578-3.1578-3.6058-1.4746-2.459-2.7247-5.0655-3.8215-7.7128-.0849-.2047,2.155-1.0064,2.6334-1.8966.7135-1.3275,1.4734-3.1882,1.0699-4.4588-1.5371-4.8407-3.5146-9.5429-5.3634-14.2829-1.2574-3.2236.8607-7.3213,4.1427-7.8256.6603-.1015,1.9674.1088,1.9666.1575-.0864,4.9052,3.3434,3.3455,5.7511,2.947,2.7562-.4562,5.3952-1.5833,8.1403-2.1524,3.1645-.6562,5.7077-.7758,8.0653,2.8521,2.6048,4.0083,4.727,8.7005,10.2098,10.6971,2.8106,1.0235,5.2293,4.606,6.6339,7.5923,1.4142,3.0068,2.9311,3.8825,6.002,3.5619,1.1302-.1179,2.3856.9638,3.5838,1.4983-.8465.8862-1.6821,1.7834-2.5446,2.6537-.374.3775-1.1952.9305-1.1475,1.0115.4584.778,1.1712,2.1528,1.6013,2.082,3.2653-.5372,2.5492,1.7069,3.338,3.5992,1.5048,3.6099,4.9357,6.5151,6.0408,10.1739,2.6245,8.6888,7.1832,16.7173,7.8158,26.148.4889,7.2878,2.7052,14.454,4.0234,21.6979.2001,1.0995-.0088,2.4875-.5361,3.4696-3.0217,5.6287-3.1423,11.5025-2.9129,17.7664.1089,2.9731-2.4588,6.6363-4.8092,8.995-6.787,6.8106-5.2598,14.5975-3.6558,22.5597.4289,2.1292.4452,4.4881,1.438,6.3135.9002,1.6552,3.7148,4.1487,4.2412,3.8366,5.163-3.0606,6.079,3.1934,9.4008,4.062,1.938.5068,3.5155,2.5122,5.1673,3.9447.8876.7698,1.5165,1.8375,2.4029,2.6089.5275.4591,1.3285.604,2.0065.8902-.4882-5.0361,2.62-1.455,4.0951-1.6778,5.6934-.8595,11.542-1.1377,17.0334-2.6909,2.5757-.7285,4.3515-4.0148,6.6972-5.8809,5.5702-4.4311,8.813-10.6547,12.6879-16.3532,2.4712-3.634,4.249-7.7452,6.2735-11.6756,1.8073-3.5085,4.3653-6.8986,5.0946-10.6334,1.2006-6.1486,5.9412-11.6894,2.7485-18.7939-1.4654-3.2608-.8921-7.4353-1.2635-11.1934-.0486-.492-.2188-.9721-.3327-1.4576-.2512.4789-.4761.9739-.7575,1.4343-2.2528,3.6855-4.3399,7.4886-6.8196,11.0153-3.3925,4.8249-8.7285,3.4813-13.5086,3.7488-.957.0535-1.9223-.0429-2.8838-.0701.6863.9536,1.3553,1.9203,2.0646,2.8566.5149.6795,1.0829,1.3189,1.6273,1.9761-.8964.4083-1.7734,1.1112-2.6927,1.1715-3.1762.2083-4.9897-3.2613-4.5407-6.3716.5375-3.7242-.0659-7.6076-.0729-11.4223-.001-.5017.5089-1.3325.9415-1.457,5.572-1.6034,6.4226-7.0032,8.7478-11.0766,2.1849-3.8276,3.5573-8.1113,5.5221-12.0779.4926-.9944,1.8867-1.5422,2.8665-2.2952.0858.759.1111,1.5362.3273,2.256.0299.0997,1.2162.127,1.5085-.1678,5.2359-5.2809,10.3856-10.6473,15.6279-15.9216,1.5349-1.5442,3.596-4.264,4.8965-3.989,2.7027.5716,5.1182,2.6983,7.5351,4.3558,1.6692,1.1447,2.9862,2.8687,4.7426,3.8045,2.3785,1.2673,4.6008,2.2386,4.062,5.6185-.1277.8013.5289,2.1968,1.2314,2.5868,5.5,3.0536,5.2604,7.7243,4.0419,12.8721-1.1915,5.034-3.8114,10.5014-2.7582,15.0777,1.0478,4.5533-2.2807,6.6168-2.3317,9.7168-.0509,3.0904,1.3125,5.9364-.1019,9.3935-2.0212,4.9402-2.928,10.3373-4.2966,15.5429-.422,1.6049-1.4852,3.4515-1.0409,4.7819.751,2.248,1.3869,3.7199-1.5977,4.5134-.3947.1049-.6342,2.5323-.5178,2.5702,4.5299,1.4749,2.8928,4.4196,2.0579,7.3946-.2583.9205.2862,2.692,1.0378,3.1696,5.154,3.2753,7.0662,9.6389,11.9287,12.8256,3.3068,2.1672,7.766,2.5835,11.736,3.6892.1041.029.3811-1.1731.8037-1.542.7274-.6349,1.8426-1.6859,2.4319-1.4869,6.8415,2.3107,11.1518.978,15.6352-5.2416,1.5401-2.1364,2.9911-4.3595,4.2562-6.6673,3.4228-6.244-1.8182-6.6821-5.4553-7.229-3.8608-.5805-7.3767-.0336-4.2683-5.8265,1.274-2.3741.684-5.7079,1.1391-8.5739.4049-2.5501,1.6634-3.0579,4.3935-2.3791,3.8968.9689,7.6421,1.4903,11.6848-1.597,3.6132-2.7593,8.7647-3.5072,13.2447-5.1223.3132-.1129.9208-.1949.9989-.0614,3.6401,6.2193,10.137,2.1143,15.0165,4.1207,4.7538,1.9548,2.4544,6.1429,3.5643,9.1311,1.7719,4.771,2.3767,10.0013-.8062,14.808-.3698.5583.0966,1.6703.1755,2.5256.7534-.5558,1.6242-1.0084,2.2283-1.6955.6442-.7327.8927-1.8411,1.5892-2.4902.467-.4353,1.6131-.7008,2.0954-.4213.6241.3617,1.4001,1.8014,1.2331,1.987-2.461,2.7336-5.0678,5.3358-7.64,7.9691-.4956-.57-1.4032-1.153-1.3857-1.7068.0235-.7448.7609-1.4669,1.192-2.1988-.8575.4479-1.7757.8111-2.5545,1.3688-.7122.5101-1.8443,1.2591-1.8147,1.8543.3658,7.3657-7.822,12.0631-6.0446,20.0456.4338,1.9483-1.771,4.4619-2.6514,6.7582-.0919.2397.4936.9357.9037,1.137,1.681.8253,3.4157,1.5409,5.1307,2.297-1.1509.5405-2.395.9477-3.4223,1.6652-.7718.539-1.5756,1.4073-1.7672,2.2629-.1165.5204.8794,1.3149,1.4158,1.9524,3.3904,4.0292,6.8151,8.03,10.1575,12.0985.3677.4476.5513,1.7412.3724,1.8412-3.9973,2.2342-3.2503,6.0745-3.6226,9.6764-.268,2.5928-1.0638,5.2216-2.1129,7.6206-1.3446,3.0748-2.9597,5.9006-.6136,9.2206.3738.5289.0734,1.7484-.244,2.5118-1.0299,2.4759-2.2753,4.8628-3.2831,7.3467-.1975.4869.2959,1.254.4707,1.892.6063-.2456,1.4996-.3174,1.771-.7657,1.4516-2.3983,3.3375-4.7445,3.9895-7.3771,2.119-8.5556,7.0063-15.2509,12.3172-22.0866,3.0263-3.8951,3.3585-9.8186,5.2133-14.7113,1.2481-3.2922,2.773-6.562,4.7604-9.4365.5355-.7745,3.24-.2386,4.8904.041.6484.1098,1.6373,1.181,1.6188,1.7884-.159,5.2091-.5273,10.4115-.7996,15.6176-.0622,1.1875.0049,2.3817.0124,3.5728.879-.6569,1.8767-1.2021,2.6176-1.989,4.4949-4.7744,8.8637-9.6696,13.4281-14.3755,1.3826-1.4256,3.248-2.3848,4.9009-3.5455.6839-.4803,1.7135-.7672,2.0375-1.416,3.9569-7.9222,10.9475-14.1914,12.0877-23.698.8818-7.3509,3.5173-14.5483,3.8643-21.8853.2123-4.4872-1.6164-9.5072.512-13.5543,1.9672-3.7407,1.3286-6.8099,1.1235-10.5284-.1919-3.4752-1.981-4.4618-4.1892-5.6128-4.6277-2.4123-8.8477-5.6962-14.9271-3.506-1.871.674-4.959-1.9392-7.4567-3.1172-3.7779-1.7817-7.0887-.9588-10.533,1.1841-1.9423,1.2085-4.4413,1.544-6.718,2.1693-.32.0879-.8869-.3356-1.1927-.6606-.7405-.7873-1.3943-1.6562-2.0831-2.4921-1.0872,1.2088-2.3221,2.3187-3.2178,3.6558-.8105,1.2096-.8974,3.4053-1.9136,3.8918-5.2788,2.5274-3.7274,6.9123-3.468,11.0122.0479.7576-.0345,1.5235-.0568,2.2855-.8575-.1916-2.0193-.0945-2.521-.6234-2.4984-2.6343-4.8303-5.4272-7.199-8.183-.2694-.3135-.4019-.7449-.5978-1.1216.9615.0767,1.971-.0006,2.8692.2793.7044.2195,1.271.8809,1.8989,1.346.0669-.8359.0757-1.6822.2217-2.5041.093-.5234.2637-1.1324.6147-1.4948,2.8538-2.9474,5.1939-5.772,6.298-10.2338,1.5307-6.1857,5.1501-11.5937,12.4184-13.3605,2.9126-.708,6.053-2.3452,8.0728-4.5088,5.8993-6.3192,12.8152-3.9144,19.6854-3.3032,2.0008.178,4.6329.022,6.0277-1.1292,3.088-2.5486,4.0892-1.7582,4.5014,1.7206.0778.6566.2911,1.297.442,1.9449.2043-.5721.2706-1.2646.6419-1.6913.7863-.9037,1.9009-2.4842,2.582-2.3432,2.3808.4929,4.6344,1.5999,6.9364,2.4735-.3479.3767-.686,1.0575-1.0459,1.0693-.8512.028-1.715-.2526-2.57-.4257-1.2145-.2459-2.4258-.5073-3.6384-.7621.7713,1.2341,1.26,2.9099,2.3676,3.6184,3.1371,2.007,6.4432,3.5933,10.0005.3673.5588-.5066,2.2593.2458,3.4319.416-.619.5401-1.4101.9782-1.8086,1.6492-.3957.6664-.7734,2.086-.5077,2.2791,1.458,1.0597,3.0767,1.9263,4.7118,2.7097,9.9013,4.7434,19.8221,9.4461,29.7361,14.1629.7418.3529,1.5846,1.1451,2.2067.9981,6.4715-1.5289,10.9704,2.5411,15.9412,5.3623,1.2729.7224,2.7744,1.0421,4.1708,1.5468-.0282-1.6709.6116-3.8398-.1991-4.9269-3.6578-4.9041-7.3413-9.9165-11.7932-14.0529-2.63-2.4437-6.8712-3.0538-10.1074-4.9636-8.9515-5.2825-18.8781-9.1329-25.8799-17.3725-.7778-.9153-2.3493-1.1244-3.4916-1.7689-2.0212-1.1402-4.454-1.9679-5.8925-3.6354-2.8406-3.293-4.9418-7.213-7.6693-10.6167-5.2473-6.5483-10.5481-13.0697-16.1445-19.3178-5.4216-6.0531-10.471-12.1897-12.7395-20.2333-1.5817-5.6082-.3301-9.022,4.6814-10.9496.4774-.1836,1.2743.0589,1.7594.3637,4.1382,2.5998,4.7009,1.7166,7.6718-1.7141,2.7814-3.2118,7.2076-5.0016,10.9176-7.4057,3.0543-1.9794,6.0901-3.99,9.1956-5.886,1.1088-.6769,3.0722-1.8307,3.5012-1.4562,4.6199,4.0334,4.4081-2.0142,5.8246-3.1973,2.0723-1.7311,3.2321-4.9653,3.9652-7.7718.705-2.6992.4562-5.6716.379-8.5173-.0086-.3152-1.6274-.6269-2.5182-.8709-3.4065-.9327-6.8548-1.7278-10.2224-2.7823-3.4461-1.0791-7.0325-2.0023-10.1718-3.705-5.8069-3.1495-11.7277-5.6649-18.3556-6.34-.9503-.0968-1.862-.6234-2.7801-.9806-6.4232-2.4993-13.101-4.5069-19.1935-7.6487-6.3189-3.2585-12.0037-7.7275-18.1137-11.4227-1.6304-.986-4.6022-.4403-5.5931-1.6847-5.8131-7.3004-15.9649-8.2611-21.6142-16.556-6.4635-9.4906-16.121-16.473-26.1763-22.4055-2.894-1.7074-4.1122-2.4946-3.2906-7.3429,1.0663-6.2929,2.5088-5.9145,6.9291-4.4878.8199.2646,2.194-.6683,3.0415-1.3738.2128-.1771-.6104-1.6183-.9799-2.4689-.2616-.6024-.5662-1.186-.8423-1.7823-.5766-1.2455-1.1473-2.4938-1.7204-3.741,1.819-.0376,3.8658-.6382,5.4157-.0111,5.4483,2.2044,9.7561,6.6334,15.9948,7.6222,1.8536.2938,3.0569,3.8071,4.8569,5.5338,2.5815,2.4764,5.422,4.6855,8.1868,6.9664.6333.5224,1.5859.726,2.0851,1.3298,1.4224,1.7205,2.3568,6.767,4.5524.4205.121-.3497,1.4986-.7136,1.6927-.5073.66.7012,1.6832,2.1214,1.4477,2.4405-2.3644,3.2039-.0326,3.6917,2.2217,3.7276,3.3403.0533,5.3757,1.1356,5.3837,4.7977.0012.553.5477,1.6063.7408,1.5832,3.7787-.4524,6.2747.4487,5.7036,4.9564,1.4638.043,3.0997-.3289,4.3639.1953,9.3966,3.8961,18.7833,7.8299,28.0391,12.046,4.7921,2.1828,9.1275,5.4427,14.0131,7.3222,3.7746,1.4522,8.0756,1.573,12.1585,2.1783,4.9711.737,9.3215,2.0601,12.0543,7.0446.9018,1.645,4.3758,1.6835,5.9295,3.2128,2.4392,2.4011,3.4172.654,5.5245-.3907,1.7396-.8623,4.6187.5741,6.9928.9918-.2722.5023-.4433,1.335-.8327,1.4541-2.8884.8836-4.3892,3.4456-2.6351,5.2971,1.4544,1.5348,4.9246,1.7372,7.412,1.5168,1.7277-.153,3.2826-2.0564,4.9501-3.1223,6.4085-4.0963,12.8916-.7958,14.7343,5.8149.7929,2.844-.0542,6.46,4.7308,5.9009-.4449,1.776-.3894,4.6623-1.4243,5.1283-3.7244,1.6775-4.7714,3.8941-5.722,8.0097-.9645,4.1744-5.5036,7.523-8.4771,11.2333-4.3156-3.6568-5.8044.9119-8.1245,2.871-.544.4593-.6617,1.4235-.9756,2.1554.7319-.0844,1.4619-.1962,2.1962-.2448.6035-.0399,1.2122-.0047,1.8184-.0029-.4001.5023-.7676,1.4074-1.2054,1.4428-3.3451.2706-4.7195,5.0602-8.9054,3.7925-.5431-.1644-1.7768,2.6871-2.98,3.8394-5.0137,4.8019-9.4355,10.9964-15.4228,13.7852-5.7868,2.6954-3.9912,6.2632-4.3584,9.9871-.3881,3.9341-.8048,7.8695-1.0096,11.8146-.0493.9488.6891,1.9386,1.0653,2.9095.5481-.7468,1.2282-1.4304,1.6215-2.2513,1.6053-3.3498,1.0639-2.7475,3.8351-.4638,5.2001,4.2852,7.7616,11.3915,15.0374,13.5582,1.7115.5097,2.4099,3.7822,4.1144,5.0671,6.8328,5.1503,13.344,11.2129,21.0026,14.6383,6.9466,3.1069,13.0656,7.8406,20.4267,10.079.9849.2995,1.355,2.4718,2.1205,3.7083.3584.5787.898,1.2412,1.497,1.4407,2.5043.834,5.9103.7469,7.4042,2.4144,2.3192,2.5886,3.5196,6.2656,4.8302,9.6232.4305,1.1029-.2687,2.6468-.4512,3.989-1.2327-.8825-2.4977-1.7241-3.6868-2.6618-.7916-.6242-1.897-2.1072-2.1375-1.9666-1.4155.8274-4.6663.6203-2.4125,4.0428.8208,1.2463-.2305,3.6061.3708,5.1461.779,1.9953.3937,7.6206,5.0726,2.5967.3922-.421,2.0009-.4768,2.0614-.3209.6435,1.659,1.9497,3.7271,1.4391,5.0531-2.2972,5.9644-4.6508,12.0194-8.0008,17.4099-1.3054,2.1006-5.2938,2.5225-8.0478,3.7364-8.0313,3.5399-13.9514-4.1384-21.5094-3.9792-7.7149.1625-15.4503-1.0907-23.1855-1.2283-2.8887-.0514-5.8245,1.2235-8.6835,2.0783-.4952.1481-1.1324,1.345-.9844,1.8438.5103,1.7189.9005,4.2577,2.1233,4.8446,5.1685,2.4807,8.9178,7.6477,15.7077,7.2777,4.6257-.2521,9.3487,1.2225,14.0175,1.9896.2308.0379.401.6805.5284,1.065.3231.975.6055,1.9635.9044,2.9465.6022-.6772,1.2855-1.9864,1.7927-1.9214,2.1291.273,4.3516.6551,6.2588,1.5783,1.7989.8708,3.1014,3.1854,4.8877,3.5444,1.7442.3506,3.8239-.9687,5.7565-1.5549.0535,1.8756-.4997,4.0691.283,5.5624,1.7775,3.391,3.6061,8.2449,6.5148,9.22,4.919,1.649,6.3805,6.7331,10.7993,8.2912.5898.208,1.1627.4638,1.7434.6975-3.0959,7.1994,5.0165,7.9366,7.0195,12.193.557,1.1835,1.1346,2.3857,1.4607,3.6421.4361,1.68.4857,3.465.9683,5.1274,1.1408,3.9307,6.3145,4.8419,6.998,9.1681,4.6191-1.6096,7.0608,2.0859,8.6732,4.7919,1.6471,2.7642,4.8176,6.1664,1.1815,10.2768-1.1329,1.2808-1.3157,4.4288-.5816,6.1432,2.2443,5.2414-.4315,9.5294-1.829,14.1148-.1936.6352-.5094,1.3282-.4169,1.9413,1.3796,9.1321.3668,17.632-3.1819,27.2992-.3447.9389-.0449,2.1142-.0463,3.1797-.0018,1.4194.5786,3.6276-.1024,4.132-4.9309,3.6522-4.4465,9.6742-6.6949,14.4572-.4233.9006-.0142,2.16-.1553,3.232-.3338,2.5371-.7677,5.0611-1.1605,7.5905-.4926,3.1702-.9416,6.348-1.4944,9.5075-.2859,1.6334-.2665,4.1754-1.2322,4.6774-3.1417,1.6332-4.2701,3.714-3.7105,7.1421.8517,5.2168-4.4724,7.6751-5.6393,12.0325-.0796.297-.7305.6844-.6954.7342,2.6725,3.8002-1.7431,4.8725-2.9463,6.9706-1.6881,2.9436-4.3857,5.3055-6.6293,7.9353-.5467.6409-1.5894,1.613-1.4194,1.9985,2.6938,6.1077-3.877,7.1285-5.7795,10.669-1.1618,2.1624-2.6538,4.1472-3.8265,6.3046-.1701.313.5138,1.5359.9795,1.657.9999.26,2.115.0757,3.1831.0733-.7534.7535-1.3856,1.7258-2.2815,2.2219-3.6009,1.9938-7.4356,3.6051-10.8763,5.8325-1.9507,1.2628-4.2681,3.2348-4.7144,5.2628-.7711,3.5039-.477,7.3239-.1472,10.9676.4147,4.5843,3.107,7.0515,7.8789,7.1875.8751.0249,1.8356.7983,2.5444,1.4552.4015.3719.3719,1.2094.5363,1.8372-.6279-.0257-1.2737.0325-1.8793-.097-.8742-.1869-1.7192-.5099-2.5765-.7748.3844.8575.6642,1.7837,1.1735,2.5591,1.3789,2.0985,2.9628,2.7935,5.5076,1.4162,3.3146-1.7938,6.4713-1.82,8.0862,2.5326.1686.4545.7708,1.152,1.0569,1.1004,8.5884-1.5509,9.4445,6.8569,14.1013,10.9496M285.0858,418.7286c5.23-7.5379,3.8575-15.8721,2.348-23.9846-.2625-1.4108-4.7817-3.6364-5.8454-2.9992-3.6255,2.1718-6.5334,5.5164-9.8213,8.2875-1.66,1.3991-3.6486,2.4086-5.3069,3.8094-1.9275,1.6284-5.0908,2.4064-4.0846,6.2852.1923.7413-2.6991,3.3388-3.3931,3.0711-3.0436-1.1737-5.8446-3.0176-8.6493-4.7545-1.7141-1.0615-3.1466-2.6597-4.952-3.4623-1.146-.5095-2.7447-.0006-4.1403.0516.7514,1.0022,1.6688,1.9205,2.2244,3.0215,2.0603,4.0825,5.6305,5.7634,9.84,6.6794.7282.1584,1.3737,1.1117,1.8749,1.8259,2.0157,2.8724,3.6863,6.0481,6.0422,8.596,1.235,1.3356,3.6914,2.3663,5.4816,2.2112,5.6283-.4876,9.6919-4.0271,13.5586-7.8953.8386-.8389,2.8301-.5255,3.7578-.7428-.5328,1.1926-1.0821,2.3785-1.5654,3.5908-.0366.0918.3952.3704.6092.5621.4963-1.2076.9993-2.4127,1.4807-3.6263.0605-.1526.0083-.35.541-.5267M222.7499,689.9165c-.3552,7.8176-.838,15.6322-1.0282,23.4538-.1756,7.2214-.5405,14.4936.0774,21.6661.9929,11.5247,2.7365,22.9845,4.1276,34.476.1028.8492-.156,1.737-.11,2.5995.0782,1.4672.3957,2.93.3804,4.3922-.0356,3.4083,7.2626,6.899-.0654,10.2931-.0927.0429.2904,1.6118.4415,1.6101,3.9853-.0457,3.1131,2.9316,3.7413,5.3402,1.031,3.953,2.6118,7.7833,4.2243,11.5527.5621,1.3141,1.8441,3.1197,2.906,3.1965,1.0697.0772,2.6672-1.4992,3.3428-2.7302,1.7067-3.1096,2.134-7.2909,7.229-6.9657.4026.0258,1.2332-1.6017,1.3171-2.5114.3598-3.9019,7.8248-12.8661,11.588-13.0478,4.654-.2247,5.2323-3.7011,6.6491-6.8439.8163-1.8107,2.1419-3.4705,3.5214-4.9307,2.2333-2.364,5.2257-4.1684,6.9413-6.8264,2.4242-3.7558,3.8312-7.955,6.9598-11.5514,5.9302-6.8168,5.4686-7.088,12.9964-4.0082,1.9761.8085,4.2787.8186,6.4314,1.1953-1.359,1.611-2.7243,3.2167-4.0725,4.8368-.3217.3865-.855.8402-.8267,1.2292.0823,1.1323.3999,2.2474.6253,3.3693.7179-.7657,1.4417-1.5259,2.1521-2.2985.5949-.6471,1.174-1.3087,1.7602-1.9637-.1086.9535.147,2.2661-.3832,2.8041-4.4998,4.5669-.6791,14.6718-10.4333,15.7094-.2748.0292-.7393.4916-.7221.7228.3873,5.2285-4.6084,6.2703-7.1256,9.2287-6.0125,7.0664-11.9198,14.2251-18.0511,21.1866-4.7447,5.3873-10.0363,10.3111-14.5589,15.869-2.6634,3.2731-7.0688,6.5072-5.3885,11.4749,1.8832,5.5675,4.8424,10.77,7.3189,16.1381,5.6013,12.1412,13.473,22.5564,23.6511,31.2356,1.0733.9153,2.4577,1.8315,2.9171,3.0433,3.7569,9.9088,11.152,17.2225,17.8139,25.0035,4.7876,5.5918,11.201,10.0197,15.0701,16.1204,7.2677,11.4599,16.4684,21.0186,26.6827,29.5066,8.9907,7.4712,18.1425,14.7731,28.8809,20.1162,13.9013,6.9167,26.9489,15.5292,40.5431,23.0895,10.2159,5.6814,20.8249,10.6542,31.0602,16.3026,14.9096,8.228,29.4022,17.2405,44.5188,25.0556,13.4013,6.9282,27.2723,13.0094,41.1876,18.8665,17.6916,7.4466,35.5459,14.5339,53.5197,21.2697,6.7905,2.5445,14.0562,3.9441,21.2018,5.3882,10.0461,2.0306,20.1205,4.4361,30.2942,5.2014,15.5245,1.1679,31.02,1.4917,46.3021,5.3598,14.4279,3.652,30.2927.2162,43.8978,8.5999,1.0297.6345,2.8069.2259,4.2081.0604,8.6213-1.0191,17.283-1.8183,25.8378-3.2489,10.0572-1.6817,19.9773-4.1815,30.0335-5.8704,11.8599-1.9917,23.1131-7.3174,35.6217-6.0022,3.7175.3909,7.6488-1.0141,11.4538-1.7443,7.3904-1.4187,14.7503-2.9967,22.1418-4.4098,11.4443-2.1879,22.7439-4.6787,32.4426-11.7429,3.6407-2.6517,7.3923-5.204,11.3182-7.3998,6.8999-3.8593,14.4066-6.7779,20.8785-11.2265,11.7152-8.0528,22.8328-16.9723,34.2427-25.4724,15.5699-11.5993,31.125-23.0579,43.8325-38.1258,6.3751-7.5594,15.5473-12.6986,22.4141-19.9214,6.8809-7.2376,12.6503-15.5721,18.5755-23.6682,8.2588-11.2851,9.6405-25.4561,15.3487-37.8535,3.0123-6.542,4.7618-13.6576,7.6345-20.2741,3.1009-7.1426,6.5409-13.8537,7.7152-21.9377,1.4072-9.687,5.4132-18.9866,8.1674-28.4904,3.0815-10.6324,6.0731-21.2915,9.0056-31.966,2.0618-7.5055,4.4124-14.9727,5.8191-22.6071,1.8598-10.094.8403-20.4427,1.4822-30.6029.8705-13.777-2.9788-26.703-4.7799-39.9646-1.0579-7.7888-4.4716-15.1013-3.237-23.4329.539-3.6384-1.7741-7.6654-2.6243-11.5526-.919-4.2027-.8283-8.8382-2.6267-12.5906-3.3265-6.9403-2.6994-13.266,1.1535-19.3824,1.1352-1.802,3.6338-3.689,5.6298-3.8321,6.6641-.4773,13.3506.8495,19.9969-1.6243,10.4542-3.891,17.6501-11.5177,24.5935-19.6849,2.5227-2.9673,6.2221-5.0496,8.3222-8.236,4.0816-6.1932,7.6131-12.7787,11.0022-19.3914,4.0452-7.8929,8.192-15.7961,11.37-24.0509,2.4842-6.4528,3.3973-13.4945,5.2998-20.1916,2.2057-7.765,5.3605-15.311,6.9651-23.1841,2.2853-11.2148,5.793-22.1505,1.1401-34.2245-2.465-6.3966-3.2214-13.3743-7.5182-19.3038-5.7753-7.9703-8.6653-17.8691-16.2639-24.687-.5762-.517-.658-1.565-1.21-2.1325-3.6694-3.7717-7.2254-7.6851-11.1856-11.1303-2.3307-2.0274-8.0177,3.9008-8.6198-3.3225-3.3359.7666-7.112.7991-9.9039,2.4731-4.1193,2.4698-7.8254,5.8325-11.1758,9.3251-3.3946,3.539-6.1378,7.7019-9.177,11.5831-.8446,1.0785-1.6445,2.2097-2.6073,3.1747-3.3584,3.3656-6.8323,6.6168-10.1605,10.0113-2.9562,3.0152-5.2615,7.3384-8.8137,8.8967-3.0868,1.3541-6.7176,1.0052-8.9105,4.5655-1.2407,2.0144-3.0599,4.442-5.1018,5.0437-5.3265,1.5695-7.9129,5.7091-8.8836,10.0977-.8898,4.0229-10.1512,4.3228-4.5823,10.7427.0718.0829-.7411.7371-.8335,1.1877-1.512,7.3734-2.9704,14.7579-4.4507,22.1379-.3065,1.5278-.6523,3.0478-.9799,4.5713-1.5743-.5052-3.5972-.5886-4.5881-1.6424-.8732-.9285-.592-2.9416-.8232-4.4753-.0754-.5003-.1595-.9993-.2396-1.4989-.2512.0562-.6854.0527-.726.1776-.6288,1.9319-2.2812,4.9521-1.6029,5.6323,2.4413,2.4481.1841,3.2913-.9779,4.2969-3.3341,2.8854-6.2671,5.7914-6.1855,10.7529.0191,1.1606-1.8617,2.2778-2.667,3.5432-1.3983,2.1969-7.1871.7388-5.0183,5.9865.0531.1284-1.2626,1.0555-2.0298,1.244-1.9533.4798-3.973,1.0998-5.9376,1.0139-2.1795-.0953-4.3547-.8225-6.4712-1.4719-.5661-.1737-.911-1.0682-1.3574-1.6317-.2947.6973-.46,1.4954-.9094,2.0722-1.1491,1.4748-2.19,3.4553-3.7322,4.0543-1.0299.4-2.9394-1.0786-4.2904-1.9674-3.2896-2.164.6793-3.7913.5969-5.8748-.2787-7.0511-1.7883-14.7427.4473-21.0238,2.6031-7.3134-.5631-14.7641,2.6824-21.6084.2925-.617-.3453-1.6214-.3707-2.4515-.1926-6.2884-.4119-12.5774-.4808-18.8678-.0648-5.9152.3606-11.8524-.0109-17.7433-.3879-6.149-2.299-12.2956-1.9966-18.3661.261-5.2385-.1577-9.2267-4.8489-12.1254-.6162-.3808-.7394-1.6713-.945-2.5738-.213-.935-.2483-1.9105-.3613-2.8683-1.0855.3805-2.2181.6632-3.2485,1.1584-4.2974,2.0654-8.3728,5.1273-12.8925,6.0547-5.171,1.061-10.7271.2459-16.1158.2459-1.5984,0-3.4037-.4891-4.7593.0845-5.9693,2.5258-10.5648-1.5813-14.4486-4.1336-5.6184-3.6923-10.4707-8.5813-17.4699-9.3965-4.3342-.5048-9.3626-4.0662-12.732,2.3113-1.5947,3.0183-3.6028,6.4324-8.1168,3.7002-.2114-.1279-.6855.0267-.9631.1821-6.2007,3.4718-13.5761,5.8222-18.2934,10.7275-6.3815,6.6359-13.9243,3.3111-19.9599,3.1645-7.8285-.1903-15.9177-4.8605-23.1864-8.8821-8.3252-4.6062-15.9237-10.546-23.7069-16.0904-1.1736-.8361-1.3924-3.5851-2.4723-3.8721-3.1593-.8398-6.5225-1.0355-9.8201-1.2059-6.7162-.347-10.8173,4.7441-15.8628,7.8693-.9131.5655-1.8742,1.2133-2.8945,1.4182-4.3967.8828-9.4251.5499-13.1097,2.6312-6.9273,3.9131-13.6838,1.1181-20.427.9576-4.041-.0962-8.0601-2.0685-12.0458-3.334-8.9419-2.8391-18.7489-4.3248-26.4901-9.1249-5.8084-3.6016-13.4714-5.3535-17.2934-12.1748-1.9606-3.4992-4.7906-6.5105-6.7602-10.0057-2.0882-3.7059-2.7128-8.7212-5.6153-11.3676-4.147-3.7813-3.6746-8.5128-5.0964-12.8626-1.4843-4.541-2.4822-9.2913-4.4682-13.592-.7488-1.6215-3.6433-2.292-5.6107-3.2959-1.1644-.5941-2.4705-.9104-3.6342-1.5054-.8652-.4424-1.6041-1.1317-2.3992-1.711-.317,1.0302-.869,2.0502-.9143,3.0922-.4173,9.6178-.3414,19.2764-1.2125,28.85-.9311,10.2336-2.7618,20.384-4.131,30.5799-.3517,2.6183.0926,5.463-.7659,7.8694-1.9257,5.3981-4.2932,10.6566-6.7748,15.8309-1.2721,2.6523-3.1761,5.0015-4.7946,7.4876-5.0163-4.7228-9.2166.2721-13.8277.9468-1.8303.2677-4.2811-1.1755-2.9888-4.2953.6279-1.5159,1.101-3.1281,1.4006-4.7419,1.1044-5.9505,1.9246-11.9604,3.2394-17.8616.5122-2.2989,2.9282-4.3653,2.9368-6.5437.0164-4.1772-1.3257-8.3436-1.5746-12.5458-.1052-1.7757.6406-4.0854,1.8382-5.3716,5.3223-5.716,5.7956-12.2843,1.1564-18.2505-.9874-1.2699-1.3475-3.0992-1.748-4.7318-.3431-1.3984-.3303-2.884-.4749-4.331-1.7689.8743-4.295,1.2922-5.1531,2.7156-1.9257,3.1943-2.7117,7.0584-4.512,10.3487-7.0835,12.9459-16.9946,23.2612-30.8089,28.7147-7.0794,2.7948-14.8267,3.6675-22.1486-1.1319-2.0901-1.37-5.4018-.9424-8.1665-1.1937-1.8151-.165-4.5125.688-5.3227-.2307-2.529-2.8677-3.7786-1.3906-5.7918.475-6.0649,5.6203-11.956,11.5456-18.6297,16.3614-8.2344,5.9421-18.5497,6.1092-28.1598,7.6978-5.8234.9626-11.9534-.1088-17.9128.262-5.4006.336-10.1693-5.4005-16.0581-1.3618-.7811.5357-3.5295-1.7972-5.3668-2.8017,4.9323-3.9482-.992-3.5512-2.0605-4.3073-2.0905-1.4793-4.6718-2.6821-7.1898-3.0553-5.6142-.832-11.3295-1.5988-16.9755-1.4336-6.2632.1833-12.477,1.7628-18.7468,2.1068-4.3835.2406-8.6827.9379-13.3471-.6265-3.7516-1.2582-8.471.4719-12.7702.7109-3.3605.1868-6.4639,1.1134-9.828-1.8059-2.9493-2.5593-7.8382-4.6455-11.6454-1.1597-8.1876,7.4965-6.1673,17.162-4.8006,26.589.14.9657-.1355,2.1837-.66,3.0012-.5542.8639-1.6372,1.3884-2.4892,2.0612.9849.748,2.0371,1.424,2.9352,2.2647.8641.8089,2.3412,1.9083,2.2222,2.6739-1.0466,6.7353-2.5781,13.4578.2261,20.0943.6926,1.6393,2.6617,2.8546,3.0316,4.4933,1.1288,5.0001,4.2457,8.6035,7.135,12.5763,1.5384,2.1153,1.0949,5.672,1.5459,8.5782-4.5154-.6757-5.3452,2.9641-6.9561,5.8017-.3411.6009-1.3937,1.0928-2.1371,1.1197-3.3143.1193-6.6655.332-9.9458-.0224-3.719-.4017-7.2985-.3971-9.0516-5.5444-1.099-3.2264-5.2777-5.6488-8.4705-7.8607-4.9932-3.4591-12.4032-1.6759-16.4525-7.8336-1.811-2.7538-5.0724-4.5459-7.6326-6.8229-.4107-.3653-.5948-.9854-.8836-1.4877.681-.0709,1.3611-.1539,2.0434-.209.6316-.051,1.2657-.0721,1.8987-.1064-.3159-.6761-.4751-1.5148-.9767-1.9983-1.5963-1.5388-3.3402-2.9228-4.9903-4.4075-3.3835-3.0442-8.1884-4.9173-8.4909-10.5285-.0356-.6598-1.1754-1.2601-1.8032-1.888-1.4854-1.4854-3.0987-2.8695-4.3937-4.5056-.5237-.6617-.3524-1.8736-.4973-2.8351.8575.2534,1.7136.6855,2.573.6922.5073.004,1.4543-.6552,1.4635-1.034.104-4.3008-3.2828-1.6644-4.9591-2.267-10.2482-3.6838-13.2297-1.7544-12.9906,8.6086.0861,3.7324-1.5951,5.6363-4.3435,7.555-2.0336,1.4196-3.6584,3.4676-5.3207,5.3625-1.3309,1.5172-1.6078,3.9354-4.7611,1.3529-2.6427-2.1644-6.5332-3.1605-10.0324-3.8248-3.5468-.6733-1.2026-8.1745-7.5443-5.8493-1.0453.3832-4.1802-5.1835-6.4814-7.8881-1.5646-1.839-3.3707-4.974-5.0496-4.9614-8.4926.0636-12.7655-6.04-17.9557-10.9682-.9386-.8912-2.1789-1.7587-3.4034-1.9935-2.5763-.4939-5.2581-.4151-7.8534-.8368-3.9672-.6446-7.8817.5916-12.0959-.9861-2.5316-.9477-6.5029,2.8843-9.799,2.8308-5.2362-.085-9.6675.4467-12.8015,5.0555-.2511-.2511-.5926-.7657-.7403-.7151-4.1681,1.4282-8.824.4042-12.2347,5.2609-4.1048,5.8451-10.1614,10.2862-15.0853,15.6016-3.0897,3.3354-6.2994,6.834-8.3141,10.8341-4.2761,8.4899-7.8742,17.3264-11.6115,26.0801-1.6743,3.9216-2.928,8.0207-4.5261,11.9773-2.5618,6.3423-.5233,13.7879-5.1833,19.7429-1.8281,2.3362-2.7803,5.6925-3.2167,8.7162-1.036,7.1786-1.5436,14.4344-2.2203,21.6632-.1312,1.4013.1571,2.8662-.1224,4.2248-.9387,4.562-2.5306,9.0418-2.9812,13.6404-.7533,7.6889-.7983,15.4464-1.2059,23.1715-.0414.7857-.6481,1.5277-.7776,2.3248-.4887,3.0082-1.8928,6.3114-1.1421,8.9978,2.742,9.8138,5.4657,19.7594,9.621,29.0158,4.1413,9.2249,12.6105,14.0508,22.1716,17.2084,6.1494,2.0309,10.6174-4.757,16.5978-2.4022.1426.0561.9245-1.6231,1.4734-2.4497.3917-.5897,1.0329-1.6493,1.3241-1.5742,3.9185,1.0109,6.0967-2.6723,9.404-3.4492,2.2059-.5181,3.5418-1.7231,3.2469,1.721-.0119.1394,1.2141.5564,1.8623.5541,6.4819-.0233,8.8874-5.5268,12.22-9.5267,1.8364-2.2041,2.7458-5.2127,3.9273-7.9223,1.4281-3.2751-.1073-9.3759,6.9874-7.0663.3931.1279,1.1907-.076,1.3868-.3865,5.028-7.9617,13.017-4.1119,19.7646-4.6971,1.8596-.1612,3.941,2.236,5.9206,3.4593-1.1825.9079-2.4262,1.7498-3.5144,2.7593-.3813.3536-.5981,1.1503-.5209,1.6921.9705,6.8099,2.9312,13.6241,2.8294,20.41-.1879,12.5209-1.5759,25.0237-1.9311,38.0669M200.9057,810.8588c-.1264-.1264-.2865-.235-.3666-.3861-.0468-.0883.0151-.2514.0597-.3688.6319-1.6606,2.0943-3.5206,1.7476-4.9396-.9676-3.9608-3.0617-7.6498-3.9946-11.6146-.8702-3.6985-.4369-7.6989-1.2641-11.4134-1.2901-5.7931-3.2675-11.4301-4.7167-17.1929-.4082-1.6233.7182-4.4507-.0747-5.0136-2.9797-2.1153-1.5673-4.6321-1.5603-7.1378.0086-3.1282,2.3325-6.4628-.9457-9.4096-.7661-.6886-.8785-2.4033-.8442-3.6334.1769-6.3425.5847-12.679.7301-19.0217.06-2.6185-1.0792-5.4678-.3805-7.8298,2.0196-6.8268-.2061-13.3328-.5944-19.9751-.1115-1.9068.2605-3.872.6444-5.763.1526-.7516,1.3584-1.3686,1.3679-2.0569.0553-3.992-7.7673-9.1716-11.7371-7.8884-2.6619.8605-5.4052,1.5316-7.9628,2.6339-2.3924,1.031-5.6334,1.9764-6.6435,3.9231-1.8601,3.585-2.9525,7.8291-3.278,11.8856-.4391,5.4744-.7828,11.1294,1.9246,16.3637.4347.8404.5008,2.4331-.0124,3.1085-2.7529,3.6239-3.4482,7.6083-3.1885,12.0512.2325,3.9776.4478,8.0891-.2847,11.9609-1.2708,6.7174-3.0765,13.357-5.0735,19.9025-.8487,2.7818-3.3704,5.0894-4.0594,7.8775-3.0808,12.4675-10.355,22.4656-17.8298,32.5187-5.1311,6.901-10.9056,12.5911-18.21,17.3464-7.7271,5.0305-16.1499,8.2504-24.3407,12.0977-1.8675.8772-6.2886-1.4407-3.6612,3.7136-1.105-.0043-2.5489.4372-3.2512-.0967-2.0773-1.5795-3.4134-3.6353-4.4939,1.0166-.3504,1.5085-4.0333,3.0344-6.2406,3.1089-2.4589.0831-5.0561-1.2942-7.4467-2.3631-5.1238-2.2908-11.4326-2.3987-14.8258-7.9579-.961-1.5746-1.9876-3.1442-3.2182-4.5043-.6156-.6804-1.7586-.8837-2.6631-1.3027.1798.8573.1341,1.8586.5748,2.5493,3.8602,6.0491,6.9898,12.8404,11.9065,17.8793,8.9952,9.2188,16.6335,19.818,30.4185,23.9657,10.7357,3.2301,20.7282,8.5559,32.4263,7.8386,3.8557-.2364,7.7686.585,11.6416.4675,3.6045-.1093,7.2294-.6328,10.7688-1.3511,1.8505-.3756,3.4596-1.8794,5.31-2.3271,7.7101-1.8647,15.8615-2.7101,20.5424-10.5409.4126-.6903,1.7001-1.0388,2.641-1.2027,5.9361-1.034,11.7039-2.1938,15.6471-7.5326,3.2101-4.3462,6.7187-8.0832,11.5772-11.1991,4.9634-3.1832,9.3394-8.9571,7.9166-16.0809-.794-3.9753-2.7289-7.7227-4.6824-12.1055M1130.6166,681.3919c-2.3227-1.2432-4.5396-3.2011-6.9928-3.5649-3.8501-.571-7.885-.2552-11.7643.2623-.4062.0542-.452,3.9956-.392,6.1259.1501,5.3433.6698,10.6834.6419,16.0227-.0293,5.6248,7.9548,9.9519,2.5984,16.4301-.1991.2408.7176,1.3823,1.0856,2.1183,1.3956,2.7911,3.519,5.4692,3.9917,8.4111.6858,4.2674.0937,8.7299.253,13.1016.028.7666,1.0686,1.4962,1.6414,2.243.1376-.8298.2665-1.6612.4153-2.489.0996-.5537.2272-1.1023.3422-1.6531.9506.5723,2.7706,1.2728,2.7082,1.6958-.3586,2.4331-1.1824,4.7957-1.8067,7.1929-.2421.9294-.8662,2.3597-.4817,2.7601,4.2681,4.4435,8.6911,8.7388,13.1025,13.0429.4132.403,1.0509.8692,1.5563.8389,4.7065-.2825,9.5096-.1776,14.0841-1.1397,6.5325-1.3738,13.5331-2.2373,17.4789-8.9776,1.353-2.3114,2.118-3.6241-1.6441-3.7876-2.4285-.1055-4.7875-1.3119-7.229-1.7094-6.5053-1.0588-10.891-5.3701-15.8696-9.1771-4.8613-3.7174-7.2574-8.3535-9.6107-13.612-1.6184-3.6159,1.3046-8.7814-3.9518-11.172-.554-.252-.6234-2.9027-.071-4.0233,2.4021-4.8736,4.9315-9.7073,7.7807-14.33,2.1019-3.4101,2.5662-6.1817-.9856-8.8325-2.1971-1.6396-4.2374-3.4893-6.8808-5.7775M110.8649,776.2277c-1.5222.1776-3.4675-.1749-4.484.6363-2.6242,2.0943-9.5046-.0023-7.7702,5.9101,1.2509,4.2644,4.8236,8.1279,8.1119,11.42,2.3427,2.3455,5.2692.2687,6.1011-2.2801.7289-2.2332-.1215-4.9508-.0794-7.4511.0247-1.4654.2889-2.9665.7075-4.3734.3695-1.2418,1.1028-2.3752,1.6754-3.5565-1.2432-.2793-2.4863-.5587-4.2623-.3053M1007.0103,533.2775c-.3552,3.5572-.7494,7.1112-1.0212,10.6748-.0384.5031.5197,1.0517.8018,1.5793.4283-.3812,1.1616-.7088,1.2397-1.1519,1.482-8.3967,2.8975-16.8053,4.2975-25.2164.2499-1.5015.4394-3.0209.527-4.5394.0806-1.398-.0136-2.806-.0308-4.2095-.8714,1.2265-1.8453,2.3968-2.565,3.7068-.2978.542-.1103,1.389-.0431,2.0875.5538,5.7483-.5004,11.2314-3.2059,17.0688M322.3808,970.6945c-.7281-.3729-1.583-.6073-2.1643-1.1402-5.1305-4.7038-10.1878-9.4877-15.3347-14.1732-.7914-.7204-1.9294-1.0599-2.9071-1.5755.3741.9777.4738,2.2578,1.1655,2.8856,5.9769,5.4237,12.028,10.7675,18.1443,16.0338.9969.8584,2.4222,1.2191,3.6495,1.8098-.6735-1.1025-1.3469-2.205-2.5532-3.8403M17.6275,819.3834c1.1269,2.1925,2.2399,4.3924,3.3899,6.5727.3158.5988.7422,1.1391,1.1179,1.7063.0958-.6695.4783-1.4679.2439-1.9889-3.0933-6.8763-6.247-13.7259-9.4736-20.5407-.3141-.6634-1.2118-1.0505-1.8387-1.5659-.1193.8349-.5987,1.8381-.2996,2.4774,2.017,4.3118,4.1989,8.5466,6.8602,13.339M567.4622,1101.7597c-3.3823-1.2512-6.7509-2.5423-10.1597-3.7165-.6129-.2112-1.392.0597-2.0943.1081.4981.4925.9126,1.1495,1.5074,1.4514,4.9779,2.5255,9.961,5.0452,15.0165,7.4088.8733.4083,2.1062.1605,3.1526.0395.5671-.0654,1.0913-.5029,1.6349-.7725-.3725-.4407-.6591-1.0982-1.132-1.2858-2.4379-.9665-4.9236-1.8122-7.9254-3.233M744.347,1132.6612c1.6585-.7103,3.2671-1.8279,4.9868-2.0387,2.7984-.3427,5.6757.009,8.5051-.1669.6717-.0416,1.2856-1.0132,1.9261-1.5569-.6411-.1666-1.2802-.4681-1.9235-.4774-3.3722-.0483-6.8577-.526-10.0709.1906-1.5998.3567-6.644-1.16-3.4235,4.0492M104.4715,668.605c-2.7363-3.4467-5.4625-6.9014-8.2264-10.3257-.2413-.2989-.7298-.3982-1.1035-.5903-.051.4777-.2772,1.0244-.1212,1.4207.536,1.3616.9132,2.9601,1.8839,3.9409,2.1746,2.1975,4.6698,4.0777,7.5672,5.5544M341.0283,988.2763c2.7889,1.7234,5.553,3.4896,8.3873,5.1346.5811.3373,1.4259.2202,2.1491.3125-.2886-.7232-.368-1.788-.9-2.1138-3.1953-1.9566-6.4947-3.7434-9.7592-5.5871-.1367.5737-.2734,1.1473.1228,2.2537M284.0203,930.2028c-1.3827,1.5864-.7818,3.8688,2.0178,6.1674.8793.722,2.3601.7113,3.5656,1.036-.1874-.7274-.1605-1.6419-.602-2.1476-1.3883-1.5902-2.9525-3.0269-4.9814-5.0558M382.5856,1012.7845c.2458.1094.4844.2577.7416.3056.0826.0154.305-.2309.3102-.3635.0656-1.6624-6.3781-6.4885-7.7876-5.7091-.3026.1673-.2404,2.0135.1543,2.2497,1.923,1.1506,4.0159,2.0173,6.5815,3.5173M1211.6,475.7366c3.0361-3.4951-1.8324-4.6218-2.1435-7.1206-.0797-.6401-.3124-1.2612-.4748-1.891-.1928.5867-.6756,1.2603-.5302,1.7457.786,2.6253,1.7277,5.204,3.1485,7.2659M646.3145,1126.2679c.7335-.3552,1.5094-.6446,2.1901-1.082.9069-.5826,1.74-1.2803,2.6049-1.9285-1.2635-.397-2.8428-1.4351-3.7022-1.0119-.869.4282-4.8702.692-1.0928,4.0223M1036.8463,516.2283c1.0656,1.9949,2.1096,4.0021,3.2288,5.9665.117.2053.6784.1575,1.0336.2272-1.3255-2.1965.8736-6.3472-4.2623-6.1936M524.3066,1086.3089c-.7991-.5328-1.5798-1.0963-2.4021-1.5904-.978-.5878-1.9421-1.336-3.011-1.5781-.5368-.1215-1.2927.725-1.9495,1.1337,1.7504.8559,3.4827,1.7526,5.264,2.5385.4404.1943,1.0396.029,2.0986-.5038M703.3225,1125.735c-1.9812-.5051-3.9603-1.0199-5.9564-1.4566-.0477-.0104-.287.8547-.437,1.3114,1.4347.2259,2.8666.4726,4.3055.667.5095.0689,1.0362.0109,2.0879-.5219M1179.1001,347.3353c-.7384-1.0656-1.4489-2.1544-2.2738-3.1483-.0601-.0724-.951.5448-1.4557.8414,1.0656.9466,2.1311,1.8931,3.7295,2.3068M1071.4774,269.5486c.3353-1.4406.699-2.8766.9398-4.3329.0153-.0935-.9199-.3442-1.413-.5218-.0198,1.4407-.0397,2.8813.4732,4.8547M439.5937,1042.0877c-1.5675-.5636-3.1351-1.1272-4.7027-1.6908.1816.5983.2701,1.6594.5603,1.7178,1.5303.3079,3.1115.363,4.1423-.0269M456.11,1053.2762c.7525.7525,1.4297,1.6137,2.29,2.2109.4183.2903,1.179.0875,1.7847.108,0-.4804.1784-1.271-.0291-1.3902-1.3006-.7481-2.6873-1.3464-4.0455-.9286M774.7158,1123.6039c.7801.1776,1.5805.5585,2.3351.4828,1.0161-.102,1.9968-.5563,2.9928-.8595-1.0626-.4073-2.0999-.9665-3.1999-1.1499-.4635-.0774-1.0595.6385-2.128,1.5266M422.0117,1033.0304c.9819.6268,1.9537,1.2704,2.9515,1.8709.3408.2051.7469.3018,1.1231.4479.0625-.3288.2672-.8896.1662-.9514-1.389-.8511-2.8201-1.6336-4.2408-1.3673M415.6183,325.4911c-1.2714-.5045-2.5429-1.009-3.8143-1.5135-.1493.4517-.2987.9035-.448,1.3552,1.2432.2304,2.4863.4608,4.2623.1584M614.3473,1116.6777c1.2432-.2304,2.4863-.4609,3.7294-.6912-.1493-.4517-.2987-.9034-.4479-1.3551-1.2714.5046-2.5429,1.009-3.2815,2.0463M843.4451,409.1385c.5981,1.3085,1.1963,2.617,1.7945,3.9256.2899-.1665.8469-.4445.8307-.4833-.485-1.162-1.0267-2.3003-2.6252-3.4423M1125.2887,216.8028c.7105-1.2432,1.4498-2.4718,2.0894-3.7503.0695-.1389-.4372-.5659-.6765-.8593-.471,1.1813-.942,2.3627-1.4129,4.6097M523.7738,1093.2351c-.3619-1.0656-.7239-2.1311-1.0859-3.1966-.526.2613-1.052.5226-1.5781.784.5328.8042,1.0656,1.6084,2.664,2.4127M463.569,1056.473c.4958.4958.9166,1.1267,1.5061,1.4538.7719.4285,1.6769.6172,2.5246.909-.5661-.7205-1.0531-1.5298-1.7259-2.1308-.4553-.4065-1.1721-.5202-2.3048-.2321M264.84,906.7602c.5981,1.3086,1.1852,2.6225,1.8205,3.9128.0405.0822.4557-.0201.6966-.0365-.3634-1.1716-.719-2.3458-1.1002-3.5117-.0472-.1444-.2309-.2442-1.4169-.3646M609.0194,361.1877c-.5328,1.1922-1.0656,2.3843-1.5983,3.5764.3386.0677.951.2459.9749.1866.4279-1.0596.7844-2.148.6234-3.763M195.0451,843.3587c.0891.7995.1783,1.599.2674,2.3985.5914-.4145,1.1829-.829,1.7743-1.2435-.503-.5626-1.0059-1.1251-2.0417-1.155M1083.1987,647.8264c.4888-.932.9775-1.8641,1.4662-2.7961l-1.3396-.4006c-.2197.888-.4395,1.776-.1266,3.1967M328.2414,977.6207c.932.4887,1.8641.9774,2.7962,1.4661l.4006-1.3396c-.888-.2198-1.7759-.4395-3.1967-.1264M809.3469,1116.6777c.1183-.1182.2629-.221.3451-.3606.0518-.0879.0154-.3342.01-.3344-.9171-.0451-1.8391-.1229-2.7472-.0431-.1134.0101-.1532.8567-.227,1.3154.6954-.0148,1.391-.0298,2.6192-.5774M1199.8787,760.2442c-.2518.8137-.5036,1.6276-.7555,2.4413.4589.0447.9178.0894,1.3767.1342-.0294-1.0361-.0589-2.0722-.6212-2.5755Z"/><path d="M868.2197,100.922c4.0921-3.7369,7.876-7.2557,11.7833-10.6318.6765-.5844,1.8754-.5641,2.833-.8231-.3777.7446-.7998,1.4708-1.1202,2.2393-.3037.7281-.5009,1.5006-.7449,2.2536.8111-.3497,1.9255-.4847,2.3614-1.1001.6353-.8969,1.3156-2.3164,1.0234-3.1969-.5593-1.6862-1.1622-2.6532,1.4255-2.357,4.001.458,5.6085-1.1502,6.3832-5.4534.8586-4.7693,2.6878-9.9369,9.6012-9.5441,1.7518.0995,1.8823-1.6503.4274-3.1152-.5503-.5541-.7819-1.4247-1.1589-2.1511.857-.1766,1.7378-.2807,2.5641-.5512.7582-.2482,2.1241-.8722,2.0874-.9964-1.7085-5.8012,3.32-9.3536,4.7215-14.0965.8719-2.9507,2.461-5.7566,4.107-8.3909,1.4168-2.2673,2.29-6.1868,6.5307-3.622.5952-1.8768,1.3073-3.7272,1.7397-5.6407.2425-1.073.0222-2.2506.0104-3.3811,1.1942.1658,2.5386.0367,3.554.5538,2.7976,1.4245,5.3736,3.2974,8.2077,4.6311,1.3807.6498,3.1455.4641,4.7285.708,1.9789.3049,3.9904.5125,5.9141,1.034,2.7.732,1.96,2.0623.3453,3.3494-1.0094.8046-.7806,1.9844-.305,3.0387,1.2351,2.738,1.9773,5.6977,3.204,8.4403,1.5208,3.4003,1.3481,6.8376,1.1337,10.4136-.0903,1.5058.6413,3.3824,1.6252,4.5734,3.5869,4.3421,5.7171,8.5038,2.8121,14.3845-1.223,2.4759-.4034,6.0423-.2395,9.0983.1545,2.8808.595,5.7537,1.043,8.6092.4409,2.8104,1.2038,5.5771,1.5215,8.3971.1707,1.5155-.2968,3.1028-.4764,4.6578-.8276-.431-1.6294-.9281-2.4939-1.2643-.4158-.1617-1.332-.1265-1.3681.0023-.2241.8009-.5876,1.7838-.313,2.4693,3.0456,7.6035,1.673,14.6224-2.3186,21.4987-1.1067,1.9066-2.8469,4.5777,1.2468,5.7257.372.1044.852,1.519.6363,1.7699-3.2721,3.8039-3.0907,10.1607-8.9726,12.0842-.8714.285-1.7567,1.4114-2.0846,2.3426-5.1223,14.5468-17.0248,20.4805-30.643,24.2071-5.5933,1.5305-11.2431,2.854-16.8609,4.2959-.3038.078-.5407.5355-.8246.5526-1.854.1117-11.4435-12.5019-10.3672-13.939,1.8774-2.5068,4.2785-6.3053,6.631-6.4337,5.4572-.298,9.3094-6.5759,15.3473-3.7213.3976.188,1.3887-.7833,2.0565-1.2789,4.2115-3.1249,8.6718-5.9766,12.5517-9.4717,6.0974-5.4924,9.3245-12.6454,10.0287-20.8144.2952-3.4247-1.2403-7.8237.382-10.1759,6.9298-10.0473-1.7669-19.9111.3744-29.9336.7572-3.5439-2.1951-8.1307-4.1109-11.908-1.2935-2.5505-3.2025-2.2929-4.6865.5793-5.9982,11.6095-12.682,22.577-24.1468,29.9652-3.7754,2.4329-6.0795,7.038-9.5773,10.0437-3.5261,3.0299-7.654,5.3776-11.5994,7.8972-5.886,3.7588-11.9777,6.8213-19.227,7.2903-2.2091.1429-4.1707,2.6133-6.4609,3.3-5.512,1.653-11.2662,1.2232-16.9351,1.0963-2.9456-.0659-13.0425-9.0759-13.7246-11.8567-.1577-.6426-.1762-1.3955-.5369-1.8978-1.0358-1.4426-3.3908-3.7118-3.1504-4.0163,1.9284-2.4424,4.2486-4.6092,6.6337-6.6435,1.2332-1.0518,3.0062-1.4673,4.2506-2.51,3.8439-3.2204,7.5754-4.446,12.5911-1.9703,3.1676,1.5635,7.1953,3.904,10.3768-1.3656.8783-1.4547,4.8622-2.0003,7.0831-1.4904,5.7612,1.3228,9.4297-.9197,12.5692-5.7595Z"/><path d="M855.9656,55.1024c.0888,1.2884-.5543,2.5522-.1741,3.2846.9274,1.7861-.5102,5.5364,4.1178,4.5742,3.5385-.7357,6.2535,4.7055,5.0511,9.2857-.2732,1.0406-.7321,2.66-.2359,3.1745,3.5233,3.6538,3.9709,6.6751.5267,10.2497-3.352,3.4788-7.0485,6.6513-10.813,9.6863-.8093.6524-2.9286.6794-3.8147.0735-5.4328-3.7146-11.2928-7.094-15.858-11.7219-7.3773-7.4782-15.2816-14.0681-24.5876-18.8516-2.5871-1.3299-5.8604-1.2686-8.5739-2.422-4.0785-1.7337-7.8162-4.2937-11.9319-5.9081-3.8261-1.5009-8.2449-1.6405-11.8838-3.4329-4.8823-2.4049-10.6235-1.7073-15.2338-4.9092-1.0366-.7199-3.2939-.6102-4.5133.0275-4.4328,2.3183-8.6943,1.2012-13.1784.3544-2.5556-.4826-5.3436.168-8.0156.4258-2.8784.2777-6.1153,1.7238-8.5427.8486-6.4582-2.3285-11.7204,1.2219-17.4853,2.3026-4.5338.8499-9.0969,1.6109-13.6795,2.1154-4.9801.5482-10.1325.1621-14.9648,1.2609-5.8947,1.3403-11.6029,3.625-17.2682,5.8205-9.1752,3.5556-18.2082,7.4795-27.3959,11.001-2.2967.8803-5.8046-3.312-5.3695-5.9967,1.1071-6.829.3963-7.8961-5.8885-8.846-.4996-.0755-.9973-.1632-1.4961-.2453.3111-.5022.5012-1.2116.9518-1.4744,4.5684-2.665,8.9987-5.6713,13.8202-7.7732,7.3618-3.2092,15.0004-5.7846,22.525-8.6195,7.5251-2.8351,14.9111-6.1758,22.6295-8.3163,5.7344-1.5903,12.1324-.8567,17.8071-2.5726,4.8663-1.4714,9.8911-3.5128,14.6669-3.2088,7.3492.4678,12.1929-6.8684,19.517-5.0753,1.6027.3924,3.1733.9144,4.7687,1.3388.7182.191,1.8897.6553,2.1295.3748,4.6591-5.4493,10.4181-.2017,15.5447-1.4984.9846-.249,2.6119,2.5168,4.1186,3.6601.7691.5836,2.5839,1.1669,2.8108.8771,2.647-3.3809,6.5744-5.5104,9.582-3.4902,2.841,1.9082,5.7142.9433,8.4052,1.9122.7708.2775,1.6005.3916,2.4032.5806-.259.6028-.3716,1.5422-.81,1.7331-.7373.321-1.6916.2684-2.5364.1864-1.1183-.1086-2.219-.5176-3.3275-.5186-.2611-.0003-.5234,1.1143-.7851,1.7161,1.154.1928,2.302.4395,3.4631.5682,3.4612.3835,6.9352,1.0045,10.3877.913,1.1229-.0297,2.1951-1.9684,3.2904-3.034.9482,1.4207,1.7838,3.9542,2.8648,4.0636,4.0073.4056,6.7887,2.4084,9.9091,4.6857,1.9354,1.4125,5.4844.9154,8.2808.7616,2.7641-.152,3.8888.6586,3.3613,3.4257,1.0716-.7603,2.0632-1.7787,3.2559-2.1488.4519-.1402,1.9133,1.1601,1.986,1.8954.6023,6.1036,5.7563,4.5835,9.2008,5.2877,3.1129.6365,5.8727.9135,8.0411,3.7758,1.3068,1.725,3.7199,2.6518,5.7108,3.8082,2.2798,1.3241,4.6426,2.5051,7.2357,4.0147Z"/><path d="M941.7441,237.8478c2.7527,2.9008,4.9815,5.8708,7.8187,8.048,1.7987,1.3803,4.5672,1.4293,6.7777,2.3657,1.3608.5764,3.4333,1.5718,3.5726,2.5982,1.0546,7.769,8.2242,5.6463,12.5671,7.9148,1.7429.9104,4.7949-1.037,5.2255,2.9943.0716.6706,3.9361,1.1995,6.0729,1.3091,1.9879.1019,3.1073.1021,3.1433,2.7196.022,1.6016,1.5887,3.1819,2.4617,4.7718.2186-3.1399,6.5178,2.0132,4.9183-3.6063.5536-.1568,1.4471-.6123,1.6105-.4263,3.2083,3.651,7.3289,1.7682,11.114,1.9887,1.7314.1009,4.7417-.0989,1.7565,2.9802,1.848.9935,3.6028,2.5149,5.565,2.8613,3.2301.5701,6.625.1651,9.8854.6284,1.1085.1575,2.0722,1.6455,3.0069,2.6169.7635.7935,1.4905,2.5404,2.0544,2.468,7.1409-.9161,6.0111,4.4026,5.2136,7.8491-1.0025,4.3325,1.157,9.9882-5.1502,12.6684-4.5431,1.9306-8.3853,2.877-13.3518,1.0887-6.8249-2.4576-14.1333-3.5388-21.1218-5.5931-2.626-.7719-4.8215-2.9183-7.4153-3.909-5.3669-2.05-10.9337-3.5792-16.2881-5.6583-2.5888-1.0052-4.8094-2.9173-7.3226-4.1656-12.3523-6.1353-23.8571-13.5824-34.2236-22.6559-3.7491-3.2816-6.5799-7.5942-10.212-11.0324-4.3222-4.0913-9.0051-7.8104-13.6329-11.5662-2.2567-1.8314-2.964-3.8109-1.0354-6.1086,1.2749-1.5188,2.7201-3.1493,4.4496-3.9707,2.5002-1.1874,5.5345-1.292,7.9673-2.5698,4.017-2.1099,6.7241-1.5999,10.053,1.7558,4.2513,4.2855,9.4583,7.6229,14.5198,11.6353M912.1745,229.5897c-.368.368-.8891.6726-1.0732,1.1168-.4254,1.0265-.6875,2.1208-1.0159,3.1875.8587-.5316,1.784-.9819,2.5588-1.616.9084-.7437,1.7931-1.5716,2.464-2.5212.2465-.3489-.1471-1.1498-.2487-1.7445-.7174.3482-1.4348.6964-2.685,1.5774Z"/><path d="M721.7036,160.5939c-2.8755-6.0573-4.4879-12.3447-10.8165-15.8485-3.0687-1.699-5.2383-4.9488-8.0471-7.2079-4.0606-3.2661-7.9456-7.1966-12.6146-9.1432-5.4018-2.252-8.6969-6.4772-12.8299-9.9547-2.181-1.8351-2.5712-3.4937-.2105-5.5686,1.7204-1.512,4.8922-3.3066.1666-5.2097-.3404-.1371-.7386-1.1319-.6259-1.2449,2.1368-2.1414,4.1934-4.4358,6.6648-6.1112.5205-.3529,2.9293,1.3629,3.9313,2.5706,3.0697,3.6997,7.0904,1.5198,10.6551,2.0617,1.022.1554,2.4622-.0251,2.9843.5776,2.0601,2.3783,3.688,4.9002,7.5542,4.7855,1.1616-.0345,2.9978,2.3372-.5939,2.6751-.5104.048-.9371.9861-1.4025,1.5123.6602.5394,1.708,1.6728,1.9241,1.5317,6.1139-3.9901,6.6661,3.3142,9.635,5.1239,5.8943,3.593,10.8238,8.7389,16.3142,13.036,3.0187,2.3626,6.3725,4.2961,9.5579,6.4485.2689.1817.5941.7972.5799.8082-5.0965,3.9601,2.1204,4.123,2.0755,6.6838-.0691,3.9492,2.6529,4.0986,5.9507,4.4467,2.37.2502,4.5494,2.5919,6.7454,4.1,1.3796.9475,2.737,1.9807,3.8786,3.1887.3351.3547.1703,1.7628-.2482,2.1163-.6754.5704-1.757.9188-2.6566.8987-1.0927-.0245-2.1748-.5286-3.2614-.8252.4774,1.1081.7222,2.4281,1.4902,3.2717.9964,1.0945,2.7273,1.5731,3.5877,2.7294,3.6102,4.8515,7.1496,9.7688,10.4356,14.8428,1.6718,2.5813,5.866,3.9214,4.3349,8.2294-.3319.9339-.1703,2.175-.7334,2.8736-3.6509,4.5283-7.284,9.0954-11.3147,13.2717-.7979.8268-4.0153.7245-4.8928-.1616-5.352-5.404-10.6375-10.8395-13.0982-18.4871-.8256-2.566-4.3081-4.1565-5.7542-6.6665-4.1241-7.158-10.0254-12.4795-16.425-17.4359-1.1467-.8881-1.7957-2.4187-2.9408-3.9191Z"/><path d="M317.8521,312.9706c-1.332-3.1941-3.312-6.1432-3.2441-9.0443.0966-4.1274-2.0962-3.513-4.5075-3.4857-.9265.0105-1.8542-.0862-2.7813-.1341.2414-1.2111.0554-2.9605.7932-3.5463,4.8889-3.882,10.0237-7.4523,14.9767-11.2565,2.1949-1.6859,4.1314-3.7052,6.2298-5.5216.7119-.6162,1.6296-1.605,2.3356-1.5138,3.4038.44,4.3617-2.4784,6.2111-4.1623,4.1003-3.7331,8.3454-7.3234,12.2468-11.2545,5.0052-5.0433,10.0102-10.138,14.4711-15.651,2.6369-3.2588,3.9054-7.6039,6.4217-10.9906,1.1667-1.5702,3.906-2.8906,5.8173-2.7508,2.2632.1656,4.3991,2.0347,6.5982,3.1497.3536.1793.7491.2759,1.1253.4108,1.4754-7.0302,4.2489.9817,6.2001-.5351,1.5705,2.1124,2.9731,3.9134.6707,6.7955-.8642,1.0817.8031,3.9162.6992,5.9196-.5766,11.1153-9.3813,17.0107-15.8144,24.3846-1.2089,1.3857-3.1232,2.2013-4.1845,3.6629-4.1727,5.7466-9.878,9.0311-16.4201,11.3887-2.1282.7669-3.9451,2.6385-5.6595,4.2632-3.6866,3.4935-7.1655,7.2058-10.8407,10.7118-.9246.8821-2.2887,1.2919-3.4179,1.9733-3.2654,1.9703-6.3701,4.2867-9.8189,5.8457-2.3714,1.072-5.2109,1.1082-8.1076,1.3409Z"/><path d="M486.7452,138.2169c-6.4499,5.3843-12.6236,10.5142-18.8361,15.5966-.4757.3892-1.3485.2912-1.8274.6785-2.7589,2.2316-7.9647-1.2201-9.5523,4.107-.1057.3545-2.9009-.1106-4.4463-.1615-1.2102-.0398-2.909-.5515-3.5521.0472-3.4628,3.2236-2.8123.4445-3.1812-1.7944-.1957-1.188-1.5488-2.1504-2.2385-3.2992-1.4008-2.3336-3.9328-4.8436-3.718-7.06.2317-2.3924,3.0586-4.5405,4.8002-6.7584.0889-.1132.6193.1202.9441.1922-.165.3762-.4257.7391-.4799,1.1305-.466,3.3606-.9193,6.7236-1.3029,10.0943-.0475.4175.3357.884.5194,1.3278.1715-.4609.5638-.9663.4811-1.376-1.0357-5.135,1.2695-8.7269,5.0816-11.8058.3998-.3228-.3296-1.8796-.2902-2.8541.0492-1.217-.0774-2.8972.6314-3.5405,1.6985-1.5414,3.8413-2.5931,5.8048-3.8425,2.4527,4.3538,3.8318-.6411,3.9613-1.0122,1.984-5.6829,8.0128-6.6556,11.6683-10.3129.9293-.9297,2.8485-1.3134,3.1793-2.3204,1.3697-4.1697,5.6267-4.3656,8.3396-6.6188,1.132-.9402,2.115-2.0577,3.2215-3.0314,2.1031-1.8508,4.3114-5.2563,6.3604-5.1731,5.6012.2277,11.2837,1.4901,16.6589,3.205,3.7748,1.2044,4.0816,6.4097,1.3723,9.301-6,6.4029-11.8263,12.9681-17.7682,19.4259-1.7786,1.933-3.7056,3.7295-5.831,5.8549Z"/><path d="M598.8965,37.2541c-2.8415,10.5423-5.1279,20.7641-8.8295,30.4448-1.2744,3.3329-5.7392,6.5206-9.3749,7.5453-3.0642.8636-6.2104-2.2624-7.4373-6.1298-1.0866-3.4249-4.484-7.1027-3.7794-9.8897,1.2012-4.751-3.2413-6.1263-3.62-9.5055-.0734-.6549-.5899-1.6548-.337-1.8913,2.9556-2.763,1.0357-7.8605,5.4978-10.3293,1.7258-.9549,1.692-5.2481,2.2879-8.0569,1.823-8.593,4.6238-16.6533,11.6922-22.5117.1361-.1128.2701-.3723.3754-.3572,2.8067.4037,4.3498-1.3333,6.4164-2.9119,2.5401-1.9404,6.1047-2.5518,9.2556-3.6546.2289-.0801,1.035.6083.9882.7801-.1685.6184-.4564,1.5084-.9323,1.6921-5.1862,2.0025-2.7999,4.273-.1936,6.3593,1.8192,1.4563,4.8784,2.2192,5.5847,4.0038.9851,2.4889,1.114,5.9638.1454,8.4453-2.0841,5.3383-5.1032,10.3116-7.7396,15.9671M579.7163,67.6229c.4457.888.8914,1.776,1.3371,2.6639.975-1.1261,1.9501-2.2521,2.9252-3.3782-1.2432.0605-2.4863.121-4.2623.7142Z"/><path d="M459.3067,226.9257c-1.782-6.7295,3.0022-10.6024,5.2456-15.3762.4175-.8885,1.0693-1.8009,1.094-2.7162.0926-3.4349.5235-5.1546,4.889-3.531,2.1287.7917,5.2304-1.3662,7.9537-1.7676,5.0857-.7496,7.0804,3.9407,7.1603,6.8146.2649,9.5297,2.4168,19.1963-1.4161,28.7068-1.0876,2.6986,1.1848,6.6156.4674,9.6288-1.2989,5.4553-2.3513,10.588-1.2342,16.3341.3416,1.757-3.3124,4.4753-5.4095,6.4658-1.8104,1.7184-6.9958.9854-4.0035,5.9616.088.1463-.4946.9991-.8408,1.0558-3.1401.5137-6.4455,1.6701-9.3942,1.0849-1.7855-.3544-3.0263-3.4539-4.5117-5.3201.6603-.5073,1.4443-.9145,1.9532-1.5441.8612-1.0654,1.5486-2.2714,2.3091-3.4182-.8092.3577-1.6184.9849-2.4277.9851-.6114.0001-1.8163-1.0284-1.7461-1.2119,1.1563-3.0195,2.6395-5.131-.5637-8.8132-1.8457-2.1217.7184-8.0487,1.2332-12.2707.1955-1.6033.8265-3.5366.1999-4.79-2.5944-5.1893-2.19-10.4071-.9579-16.2783Z"/><path d="M773.6502,97.9916c.5012,1.7444.9828,2.9647,1.5107,4.1646.3385.7692,1.2506,1.9001,1.0273,2.1883-.696.8981-2.0404,2.2481-2.7247,2.0452-4.2915-1.2724-9.4647-.273-12.6278-4.6518-.4812-.6661-1.2541-1.1771-1.987-1.5921-.9945-.5632-2.0805-.9647-3.1273-1.4356,1.0491-.5947,2.1949-1.0724,3.1094-1.8296.5184-.4293.5818-1.3652.9802-1.9899,1.7042-2.6717,3.4496-5.3172,5.1947-7.9625.901-1.3658,3.8297-2.1814,1.1856-4.4812.4896-.5015,1.2158-1.5244,1.433-1.4258,2.9905,1.3571,5.9967,2.7228,8.8241,4.3841,2.7403,1.6101,1.1579,3.2555-.506,4.3751-3.9558,2.6616-4.0901,2.8675-2.2922,8.2113Z"/><path d="M544.5524,12.7459c1.9044-1.7268,3.3361-3.4098,4.6325-5.1912,1.6792-2.3074,3.6745-3.2087,6.0087-1.1619,1.591,1.3952,2.8476,3.1718,4.2537,4.7779-1.7243.5251-3.4663,1.0002-5.1653,1.5971-.7993.2808-2.1499.7692-2.1684,1.2092-.1275,3.024.1225,6.062.054,9.0911-.0278,1.2335-.169,3.022-.9401,3.5367-.9152.6108-3.0501.6733-3.8083.0075-2.5779-2.2639-5.2354-4.6733-7.0138-7.5515-2.2-3.5606-.0765-5.6156,4.147-6.315Z"/><path d="M212.0942,929.1372c-.3552,1.0896-.6293,1.7261-1.0823,2.1867-.9562.9725-2.0059,1.8529-3.0173,2.7711-.7646-2.147-1.5292-4.2941-2.2938-6.4412,2.1311.3169,4.2623.6337,6.3934,1.4834Z"/><path d="M481.4173,276.7412c-1.7261.2275-3.1857.1886-4.6454.1497.7231-1.3556,1.1577-3.0729,2.2604-3.9525.8831-.7045,2.5779-.3917,3.9124-.5304-.4203,1.3556-.8406,2.7113-1.5273,4.3333Z"/><path d="M539.2246,326.0239c.8317-1.0656,1.6634-1.5984,2.4951-2.1311.2094.9125.645,1.8437.571,2.7325-.0925,1.1106-.4942,2.2368-.9643,3.2637-.5202,1.1362-1.2687,2.1679-1.9178,3.2451-.4166-1.2872-1.0622-2.5558-1.1689-3.8682-.0708-.8706.6297-1.8039.9849-3.242Z"/><path d="M1173.5058,418.4622c-.6116-.9867-.9568-1.7071-1.3022-2.4274,1.0709.0252,2.2677-.2241,3.1617.1864.478.2194.4339,1.5764.6255,2.4199-.7396.0291-1.4791.0583-2.4851-.1789Z"/><path d="M704.7015,1230.8172c-.7115.1783-2.2279.4411-2.4837-.0103-.45-.7941-.1294-2.0251-.1315-3.0731.7927.9487,1.5853,1.8975,2.6153,3.0834Z"/><path d="M897.5229,1103.6244c.1063-.6391.4367-1.2668.8594-1.3365,1.2841-.2118,2.6038-.2319,3.9093-.2263.0756.0003.1474.8917.2209,1.3683-1.5744.1536-3.1488.3072-4.9896.1946Z"/><path d="M383.3848,1169.157c-.2313,1.4745-.7291,2.6825-1.2268,3.8907l-1.7035-2.266c.888-.6303,1.776-1.2607,2.9303-1.6246Z"/><path d="M837.3181,1124.9358c-1.1543-.5631-2.0424-1.3924-2.9303-2.2219,1.0975-.2361,2.1861-.566,3.296-.6721.6242-.0598,1.2836.2491,1.9272.3918-.6755.7453-1.351,1.4905-2.2929,2.5022Z"/><path d="M945.4736,351.864c.9867-.6116,1.707-.9569,2.4273-1.3021-.1876,1.0036-.1798,2.1116-.6388,2.9701-.259.4845-1.2862.5582-1.9674.817-.0291-.7395-.0583-1.479.1789-2.485Z"/><path d="M827.1952,1124.4031c1.3482-.9606,2.43-1.6547,3.5118-2.3489-.0371.7152.1985,1.6478-.1646,2.1032-.9484,1.1898-2.0497,3.0214-3.3471.2457Z"/><path d="M564.7983,60.6966c1.0633-.5351,2.1266-.5373,3.1899-.5396-.4773.8371-.9547,1.6742-1.4321,2.5113-.5859-.4796-1.1719-.9593-1.7578-1.9717Z"/><path d="M62.9142,739.4655c1.142-1.0656,2.2804-1.6073,3.4423-2.0923.0388-.0161.3168.5409.4832.8307-1.3085.5981-2.617,1.1963-3.9256,1.2617Z"/><path d="M1207.3377,539.1381c1.0207.5776,1.5087,1.1553,1.9966,1.7329l-1.8118,1.1158c-.2392-.9495-.4784-1.8992-.1848-2.8487Z"/><path d="M156.6845,412.3352c1.2895-.664,2.579-.7953,3.8685-.9265-.104.3665-.1565,1.0239-.3204,1.0529-1.17.2073-2.3627.2865-3.5482-.1264Z"/><path d="M469.696,200.0201c-1.1197-.2317-1.973-.7298-2.8263-1.2279.9023-.2123,1.8008-.4577,2.7154-.5661.0645-.0077.2488.9949.1109,1.7941Z"/><path d="M813.8755,129.1596c.3074-.9767.8813-1.6871,1.4551-2.3975.3141.3141.6283.6283.9425.9424-.7104.5738-1.4207,1.1476-2.3975,1.4551Z"/><path d="M1075.4733,332.1509c1.0448-.376,2.3558-.4857,3.6669-.5953-.1553.3746-.3049,1.0686-.467,1.0716-.9762.018-1.9554-.1225-3.2-.4762Z"/><path d="M325.8439,368.9131c.4023-.6216,1.071-.9767,1.7396-1.332.2044.5477.4088,1.0954.6132,1.6431-.6955-.0149-1.391-.0298-2.3528-.3111Z"/><path d="M736.3552,396.3516c-1.0656-.4288-1.5984-.8575-2.1311-1.2862.3369-.2816.6738-.5633,1.0107-.8449.5511.7104,1.1021,1.4208,1.1204,2.1311Z"/><path d="M760.597,632.642c1.2708-1.2708,2.25-2.3018,3.2839-3.2749,4.2049-3.9575,7.9861-3.7338,11.9302.5104,1.0992,1.1826,2.479,2.7494,3.8682,2.9047,5.6272.6292,7.8945,5.104,10.5989,8.8833,3.1671,4.4259,5.8547,9.2012,8.6543,13.8822,3.5695,5.9685,7.3176,11.8548,10.4631,18.0438,2.1678,4.2654,3.7104,8.9062,5.0581,13.5179,2.2286,7.6262,3.6168,15.5264,6.2604,22.9919,1.4879,4.2015.7182,8.1187-.432,11.5285-1.6154,4.7882-5.0181,8.9651-7.5776,13.4484-.7271,1.2735-1.5391,2.6631-1.6968,4.0685-.6599,5.8829-3.4909,9.6331-9.0369,12.213-4.3539,2.0253-8.061,5.5059-11.9126,8.5224-2.3744,1.8594-2.4728,3.4529-1.0438,6.2319.1502.2923.2039.9098.0414,1.0332-.4135.3144-1.2892.7357-1.431.5878-3.2554-3.3961-6.2147-.4136-9.1151.5349-2.7882.9119-5.3743,2.4403-8.054,3.6875-.4453.2073-1.0938.6534-1.3475.4981-6.3276-3.8752-10.4836,1.4552-15.4864,3.4615-4.1145,1.6503-8.8414,2.0521-12.6169,4.2016-5.17,2.9435-11.6452-.1078-16.3851,4.3933-1.1063,1.0505-4.0537,1.1646-5.6532.5015-4.4112-1.8287-6.3084,1.277-8.9112,3.4992-.6412.5475-2.2342.1437-3.3486-.0541-5.1155-.9078-10.2168-1.8961-15.3214-2.8653-.1367-.0259-.2525-.1623-.3781-.2472.1477,5.6826-4.7173,1.8735-6.5137,3.4695-2.6838,2.3842-5.4192.9807-8.164.9066-1.5511-.0419-4.0832-1.1528-2.1341,2.266.2901.5089-.3743,2.2207-.919,2.4003-.9403.3102-2.62.2672-3.1401-.3469-3.1206-3.6848-6.8209-3.9719-10.9711-2.3561-6.0823,2.3679-12.5445.1219-18.4991,1.3878-3.3509.7124-5.9333.172-8.9768-.1402-2.4638-.2527-5.0674,1.3558-7.6669,1.8023-3.3582.5771-6.7733,1.1164-10.1651,1.1239-3.5806.0079-7.1864-1.0683-10.7382-.8765-4.7809.2581-8.248-1.7557-12.2906-3.9821-4.3845-2.4147-10.1595-3.705-15.1441-3.2876-6.7582.5658-11.5333-3.3445-17.2044-5.1366-.9307-.2941-1.5483-1.7499-2.1871-2.7478-.6188-.9664-.8433-2.6509-1.6463-2.9571-4.7935-1.8273-6.9661-6.1998-10.1966-9.6018-2.7911-2.9391-5.1372-5.4624-4.2416-9.9364.5647-2.821-1.6342-4.262-4.9988-4.1135-.548.0242-1.4808-1.1673-1.6672-1.9349-.4603-1.8963-1.5361-4.7778-.6906-5.6608,3.7457-3.9128,2.2226-6.9868-.4426-10.4328-.6774-.876-.5771-2.4072-.6893-3.6504-.0942-1.0451.4707-2.4522-.0302-3.107-2.517-3.2901,1.0844-6.9361.5565-8.3892-2.2729-6.2574,4.1508-10.4263,2.7108-16.0163-.5362-2.0813-1.3588-4.1206-1.6111-6.2317-.1594-1.3333.5713-2.7532.7676-4.1532.3788-2.7015.4961-5.4516,1.0565-8.1109.2708-1.2851,1.2999-2.4105,1.9856-3.6081.6895.8349,1.3465,1.7016,2.1013,2.4727.123.1256.8188-.0559,1.0111-.2908,1.9656-2.4012,1.6445-4.1001-.9209-5.8358-.522-.3532-.7987-1.0691-1.1885-1.6179.6179-.3738,1.1943-.9523,1.8607-1.0874,3.57-.7237,6.2412-2.2475,6.1014-6.4226-.024-.7178-.3833-1.4244-.5877-2.1362-.6822.4871-1.4008.9313-2.038,1.4715-.9826.8332-1.9095,1.7321-2.8601,2.6031-.1151-1.256-.6509-2.657-.2765-3.7445,2.3507-6.829,4.0962-14.0544,7.6535-20.2187,2.7041-4.6859,7.5346-8.3397,11.9834-11.707,1.3666-1.0342,4.5915.4478,6.9753.6723,1.2922.1217,2.6295-.1276,3.9.0778.7597.1229,2.0231.7695,2.048,1.2347.2518,4.7161.4313,9.446.3421,14.1665-.0488,2.5838-.3952,5.2243-1.0527,7.7221-1.8069,6.8648-4.2884,13.5784-5.6971,20.5154-2.2461,11.0612-6.7041,21.8423-4.9118,33.5077,1.0776,7.0139,1.0065,14.4694,3.5173,20.9228,2.4864,6.3906,7.1559,12.1269,11.7215,17.4127,1.7123,1.9823,6.0553,1.4367,8.8094,2.8194,11.2124,5.6296,23.17,6.5277,35.3923,6.3387,8.2869-.1281,16.5859.1995,24.8632-.1111,4.7175-.177,9.4023-1.2256,14.1016-1.8834.3338-.0467.6945-.2208.994-.1446,9.5928,2.439,17.3216-2.4248,25.6314-5.8988,4.2849-1.7914,9.6004-1.0836,14.4404-1.5977,2.1742-.2311,4.326-.679,6.485-1.0463,14.595-2.483,29.1893-4.9698,43.7829-7.4609.6567-.1122,1.3804-.1372,1.9442-.4412,4.9386-2.6624,9.7354-5.6142,14.7885-8.0326,11.8985-5.6946,18.1784-16.21,16.4474-28.0806-.0689-.4723-.1755-1.3266-.0203-1.3883,6.7528-2.6836.6679-5.4328.0768-8.1466-.8293-3.8072-1.6344-7.6206-2.3758-11.4455-.1658-.8556.2652-1.9133-.0866-2.6278-.6604-1.3413-1.6916-2.5-2.5685-3.7348.1666,1.3506.3638,2.6983.4914,4.0526.139,1.4764.2136,2.959.3163,4.4389-1.1683-.9499-2.9606-1.6715-3.4048-2.8862-3.2203-8.8048-7.6336-17.1598-10.7915-25.877-2.7372-7.5561-7.4627-14.9547-6.3451-23.6659.0833-.6499.3427-1.2772.7868-2.1814Z"/><path d="M204.3688,576.1667q-2.7163,4.6851-5.0746,1.2012c-.1838-.2704-.7679-.6232-.8061-.5843-.476.4847-1.3261,1.1143-1.2464,1.5563,1.4064,7.7984-5.3375,9.7684-9.5952,13.4372-4.5087,3.8851-10.1279,3.698-15.6212,3.854-.8284.0235-1.6501.2847-2.475.436.1982.6061.3494,1.233.6072,1.8127.2898.6517.6757,1.2606,1.0198,1.8882-.9611-.179-2.1612-.0584-2.8358-.5965-1.6309-1.301-2.8941-3.0694-4.5469-4.334-.9912-.7583-2.869-1.6651-3.607-1.2345-4.661,2.7197-6.8271-.9947-9.5931-3.2997-.2219-.185-.6534-.1186-.9875-.169,2.7027-6.3897-4.3707-9.8245-4.6308-15.299-.294-6.1907,1.5587-12.312-.7753-18.6708-.9406-2.5625,1.492-6.3658,2.4005-9.6013.1328-.4731.5616-.9907.4581-1.3835-1.8537-7.0371,2.6691-13.3629,2.2138-20.2611-.1984-3.0057,2.8535-7.4578,4.5456-10.3867,1.6754-2.9001,2.0185-6.5871,2.8532-9.9519,1.1597-4.6753,2.0188-9.444,3.5486-13.9903.263-.7817,3.223-.656,4.9372-.9494-1.0233-1.463-3.2287-3.5343-2.8477-4.2746,1.1299-2.1956,4.1373-3.5958,4.8344-5.8044,1.1215-3.553,7.9583-4.5422,4.4579-9.978,2.1382-1.1526,4.6501-1.9137,6.3445-3.5311,5.0903-4.8593,9.9739-4.1497,15.4324-.6691,2.1388,1.3638,4.9732,1.6781,7.5232,2.3467,4.6475,1.2185,8.1128,9.9277,5.3309,13.7546-.2608.3587-1.5697.2854-2.1486-.0316-.3923-.2149-.1825-1.3404-.5489-1.8277-.9996-1.3292-2.1621-2.5359-3.26-3.7911.2326,1.5887.2152,3.2663.7431,4.7499,1.8531,5.2071,1.592,10.1342-1.2381,14.9459-3.9412,6.7009-9.3216,13.0492-11.2447,20.3018-1.8628,7.0253-4.309,15.3177.9491,22.4864,3.7243,5.0777,7.9946,9.7648,11.5783,14.9333,4.7669,6.875,6.1638,14.5033,3.3052,22.9157M153.4878,583.3593c.3552.5552.6551,1.1569,1.0761,1.6568,1.1989,1.4235,2.4471,2.8055,3.6759,4.2039-.5184-1.7248-1-3.462-1.5721-5.1688-.2561-.7639-.6669-1.4817-1.055-2.1946-.5704-1.0476-1.1833-2.072-1.778-3.1064-.1156,1.1812-.2312,2.3624-.3468,4.6091Z"/><path d="M1092.256,587.0888c-1.5154-.6274-2.5375-1.8512-3.4743-1.7889-8.3769.5562-10.009-6.6395-13.6197-11.5658-.2073-.283-.4903-.5125-.7482-.7562-7.1248-6.7312-3.9449-13.8758-1.72-21.5943,1.1806-4.0955,3.8104-8.3588,1.0853-13.8871-1.4618-2.9657,2.2749-8.4403,3.5149-12.8255.3534-1.2498-.0035-2.6884.2745-3.9736,1.4306-6.6164,2.9847-13.2059,4.4475-19.8154.6859-3.0997,1.3884-6.2044,1.8641-9.3402,1.029-6.7845,4.9125-12.2959,8.5299-17.7158,1.4531-2.1771,5.3276-3.448,8.2469-3.761,3.8527-.4132,7.9375.1477,11.7474,1.0387,1.8279.4275,5.1927,1.807,1.9376,5.0803-.4101.4124-.0488,2.0998.4715,2.8267,1.1907,1.6634,3.7305,2.9993,3.8881,4.644.4637,4.8402,1.6138,9.9121-1.0061,14.5741-1.9459,3.4629-4.2692,6.7501-5.8119,10.3761-.3594.8446,1.9005,2.6752,2.7084,4.1843.6791,1.2687-4.8593,2.2958-.2596,3.9576.7747.2799,1.6173.3717,2.4286.5503-.6672.5317-1.2611,1.228-2.0155,1.564-2.1795.9708-2.6694,1.6736-1.098,4.133,1.4603,2.2853,1.4433,5.5216,2.0359,8.3477.1069.51-.1963,1.3895.0463,1.5459,5.1435,3.3185,2.181,9.2807,4.3941,13.6772,1.0808,2.1471-.1907,5.4901-.438,8.2883-.0965,1.092-.3048,2.1741-.4622,3.2606.92.0682,1.9375-.0795,2.7269.2775.5615.254,1.2461,1.2707,1.143,1.8055-1.7062,8.8333-9.3565,14.04-13.3094,21.5311-.3081.5841-1.4499,1.0913-2.1582,1.0368-2.7217-.2099-4.7122.3708-6.3011,2.9586-.4749.7737-3.1007.1202-4.7121.3364-1.2974.1742-2.5509.6739-4.3567,1.029Z"/><path d="M467.5649,535.675c.7686-.7685,1.7623-1.3463,1.6986-1.7615-.8258-5.3746,4.6706-6.8121,6.5479-10.5429,1.7398-3.4576,3.9527-3.1106,5.9363.1194.2208.3595,1.8304.4261,1.9396.2053.8697-1.7589,1.8403-3.5627,2.1946-5.4619.7381-3.9563,2.6632-5.5092,6.8117-5.0025,1.717.2096,3.7077-.9302,5.4189-1.7716,2.6145-1.2859,5.0112-3.0314,7.6632-4.2177,1.5632-.6993,5.3587-3.025,2.667,2.168-.1084.2092,1.578,1.2874,2.3578,2.0342.9363.8966,1.797,1.872,2.6905,2.8133-1.2522.1244-2.6321.6419-3.7285.286-1.9197-.6231-2.9789-.6729-2.4838,1.7373.2304,1.1214.3775,2.4972,1.0968,3.2407,3.6359,3.758.9005,7.1177-1.3018,9.4125-4.3967,4.5812-9.5533,8.4372-14.4302,12.5522-4.1776,3.5251-8.4721,6.9141-12.5916,10.5048-7.6127,6.6353-16.9361,10.3519-25.7464,14.8316-6.2966,3.2015-13.1702,5.5385-20.0377,7.2571-5.07,1.2686-10.8819-.0805-15.7484,1.5602-5.1871,1.7488-10.2608,1.3165-15.3787,1.7758-1.3715.1231-2.8438-.7432-4.2511-1.2117-.6186-.206-1.6299-.9008-1.7203-.7864-5.1379,6.4975-8.2882-3.1888-13.3068-1.6578-2.6524.8091-6.5675-1.1834-9.4517-2.7561-5.6856-3.1003-11.1206-6.6854-16.4872-10.3238-1.0571-.7167-1.3507-2.572-1.9739-3.9126-.6107-1.3137-1.737-2.6816-1.6417-3.951.1057-1.4068,1.2114-2.8233,2.1228-4.0575.7132-.9658,1.7944-1.6599,2.7121-2.4746-.949.1044-1.9093.3403-2.8424.2601-.4975-.0427-1.399-.795-1.3441-.9469.2829-.7821.6951-1.599,1.2864-2.1725,1.6171-1.5685,4.6565-2.928,4.7711-4.5383.2778-3.9054,2.3283-3.6206,5.135-4.1334,7.8821-1.4399,14.0268,2.8738,20.7224,5.444.1546.0594.4946-.0147.5033.0259,1.3165,6.1506,8.4565,3.8466,11.1194,7.5178,3.5618,4.9106,6.7231,4.0118,12.0736,2.585,4.6554-1.2414,10.7664-4.0838,16.1394.1884.7836.6231,3.9493-.1004,4.4427-1.0321,2.9808-5.6287,10.2985-1.1953,13.3956-6.0814,6.8052,1.6062,10.4711-2.3432,14.3644-7.1142,1.174-1.4387,5.5043-.3018,8.6552-.6112Z"/><path d="M634.8596,926.7397c1.0187-2.0843,1.9003-3.8619,2.4848-5.7323.5177-1.6562.6623-3.4256,1.0539-5.1261.2546-1.1052.3265-2.5297,1.0478-3.2037,3.7465-3.5008,7.3509-7.308,11.6148-10.0654,6.8765-4.4469,14.3846-6.2783,22.8663-4.5412,6.2568,1.2813,11.3187,4.4806,16.4314,7.7061,3.7424,2.3609,5.1787,5.8056,5.9407,10.6973.9411,6.0413-1.8197,13.1053,3.5704,18.2988.2023.195.3552.7544.2303.9306-4.727,6.6634-2.1192,17.2438-11.4457,21.4732-.5587.2534-1.14.9663-1.2767,1.5645-2.0907,9.1517-9.3089,13.4628-18.7097,12.1773-2.9424-.4024-6.2222,1.8327-9.3779,2.7571-1.8474.541-3.4209.6234-1.8508-2.0776.0892-.1535-.9134-1.2983-1.1281-1.2195-5.2256,1.9183-9.8398-.4144-12.71-6.3616-.3773-.782-1.4272-1.2395-2.1657-1.8474.028.6945.1111,1.3925.0684,2.0827-.0413.6672-.2123,1.3262-.3263,1.9889-.7314-.2492-1.5827-.3366-2.1741-.7749-2.9145-2.1599-3.5224-6.9213-3.0232-11.3574.2832-2.5172-1.8839-5.215-2.3889-7.9351-1.194-6.4315-3.2014-12.9886,1.2684-19.4344M677.216,960.0388c-.4804.1252-.9608.2505-1.4412.3756.6264.7311,1.3552,2.1402,1.8594,2.064,1.4148-.214,2.767-.9838,4.0688-1.6754.2477-.1316.1513-.9108.2138-1.3912-1.2117.209-2.4235.4181-4.7008.6271Z"/><path d="M839.4493,550.0602c3.8207,2.7552,7.2947,5.3714,10.9585,7.687,2.3497,1.4851,5.5622,1.9693,7.3791,3.8678,6.6873,6.9874,15.3589,9.5064,24.2892,10.5377,4.5315.5234,9.447-1.3937,14.0566-2.6809,4.5743-1.2773,8.9944-3.1174,13.4539-4.786.9161-.3427,1.9142-.845,2.5223-1.5694,3.6309-4.3253,7.0148-8.8656,10.7684-13.0781,2.8078-3.1509,6.0631-5.9012,9.082-8.8676.5959-.5856,1.2228-1.273,1.4923-2.0348,1.288-3.6407,5.4273-5.7034,8.9285-4.2145.7147.3039,1.783,1.3444,1.6709,1.7888-1.6516,6.5487.6429,12.1981,3.1494,18.1129,2.7217,6.423-2.6684,10.2894-6.1524,14.5561-.6546.8016-1.485,1.4596-2.2344,2.1839.997-.1526,1.9959-.4318,2.9905-.4174.7818.0114,1.5584.3851,2.3373.5979-.3552.7405-.5788,1.599-1.105,2.1863-.4634.5172-1.3317,1.1175-1.907,1.0184-4.872-.8391-8.5185,1.9179-8.8163,6.5695-.0352.5493-1.7799,1.6182-2.3232,1.4048-3.7333-1.466-7.3248.5266-9.482,3.814-1.4171,2.1594-4.4923,3.6177-7.1233,4.5209-7.9431,2.7266-15.9837,5.2087-24.0959,7.3764-2.1698.5798-5.5606.5942-6.9552-.6904-3.9532-3.6412-7.7668-1.918-12.0177-1.4881-2.9598.2994-6.2086-1.2972-9.1818-2.4312-1.9825-.7561-3.6364-2.3412-5.5826-3.2411-.7561-.3495-3.3782-2.2315-2.3382,1.3737.0417.1444-2.0088,1.3353-2.3765,1.0673-.9177-.669-2.1426-2.6533-1.9959-2.7922,3.9636-3.7555-.7838-5.5035-2.2258-6.2038-2.7245-1.3232-6.1549-1.1782-9.2829-1.6979-.6467-.1074-1.551-.2657-1.834-.7163-3.6202-5.7646-7.1475-11.5876-10.7048-17.3918-.1699-.2771-.385-.7316-.6017-.7453-9.5225-.6034-3.0063-5.0494-1.6767-7.7578,2.6464-5.3906,11.1403-8.3246,16.934-5.8589Z"/><path d="M875.6787,601.7404c-1.4441-.3318-2.6218-.9301-3.7995-1.5284,1.3887-.8225,2.7367-1.7357,4.1998-2.3921.2977-.1335,1.5349.9278,1.4797,1.0497-.4173.9227-1.0489,1.7485-1.8801,2.8708Z"/><path d="M287.7498,784.2195c1.337-.9717,2.6741-1.4106,4.0111-1.8495-.5847,1.4625-1.1694,2.925-1.754,4.3875-.7524-.6684-1.5047-1.3368-2.2571-2.538Z"/><path d="M678.0152,392.3557c1.5096-.1724,2.7803-.1869,3.9703.1162.2131.0543.0919,1.4211.1251,2.1819-1.4539-.6772-2.9079-1.3544-4.0954-2.298Z"/><path d="M631.9293,948.3175c.0835,1.5149.167,2.497.2504,3.4792-.5018.0203-1.3692.207-1.4477.0347-.6445-1.4159-1.1424-2.8987-1.6848-4.3612.9607.1048,1.9214.2097,2.8821.8474Z"/><path d="M641.253,447.7654c-.7115,1.0645-1.6894,1.8625-2.6674,2.6605l-1.3285-2.1015c1.2432-.2751,2.4863-.5503,3.9959-.559Z"/><path d="M670.0234,364.1181c-1.3715-.1284-2.4767-.5231-3.5818-.9179.1142-.3156.2283-.6313.3425-.9469,1.1686.5328,2.3371,1.0656,3.2393,1.8647Z"/><path d="M286.4178,471.7407c-.4724-.5932-.6784-1.4527-.8844-2.3123,1.0676-.0548,2.1352-.1096,3.2028-.1644-.684.7368-1.368,1.4735-2.3184,2.4767Z"/><path d="M934.5515,578.5643c1.3448.1017,2.1568.2032,2.9688.3049-.4519.604-.904,1.2079-1.356,1.8119-.7152-.7057-1.4304-1.4112-1.6128-2.1168Z"/></svg>